<svg xmlns="http://www.w3.org/2000/svg" width="1000" height="500" viewBox="0 0 1000 500" version="1.1">
	<rect x="0" y="0" width="100%" height="100%" fill="#ffffff" />
	<path fill-opacity="0.016" d="M 0 250.001 L 0 500.002 500.250 499.751 L 1000.500 499.500 1000.752 249.750 L 1001.004 -0 500.502 -0 L 0 0 0 250.001 M 0.492 250.500 C 0.492 388, 0.608 444.101, 0.750 375.170 C 0.892 306.238, 0.892 193.738, 0.750 125.170 C 0.608 56.601, 0.492 113, 0.492 250.500" stroke="none" fill="black" fill-rule="evenodd"/>
	<path fill-opacity="0.075" d="M 458 17 C 458 21.889, 458.067 22, 461 22 C 462.650 22, 464 21.550, 464 21 C 464 20.450, 463.100 20, 462 20 C 460.900 20, 460 19.550, 460 19 C 460 18.450, 460.900 18, 462 18 C 463.100 18, 464 17.550, 464 17 C 464 16.450, 463.100 16, 462 16 C 460.900 16, 460 15.550, 460 15 C 460 14.450, 460.900 14, 462 14 C 463.100 14, 464 13.550, 464 13 C 464 12.450, 462.650 12, 461 12 C 458.067 12, 458 12.111, 458 17 M 497 17 C 497 22.121, 498.110 23.357, 499.920 20.250 C 500.481 19.288, 500.953 19.014, 500.970 19.643 C 501.015 21.368, 504.068 22.189, 505.627 20.895 C 507.521 19.323, 507.353 15.073, 505.368 14.311 C 504.470 13.966, 502.895 14.209, 501.868 14.851 C 500.277 15.844, 500 15.719, 500 14.008 C 500 12.890, 499.335 12, 498.500 12 C 497.367 12, 497 13.222, 497 17 M 511.012 13.978 C 508.668 18.357, 512.967 23.311, 516.612 20.431 C 518.412 19.008, 518.384 18.952, 516 19.219 C 513.908 19.454, 513.446 19.031, 513.171 16.622 C 512.866 13.952, 513.036 13.792, 515.519 14.415 C 517.474 14.906, 518.081 14.738, 517.771 13.794 C 517.022 11.514, 512.261 11.644, 511.012 13.978 M 519 17.083 C 519 22.735, 521.011 23.592, 522.132 18.418 L 522.763 15.500 522.882 18.750 C 522.998 21.952, 524.262 23.002, 525.530 20.951 C 525.895 20.361, 526.686 20.265, 527.339 20.732 C 527.978 21.188, 530.075 21.548, 532 21.531 C 535.066 21.504, 535.539 21.159, 535.816 18.750 C 536.213 15.300, 537.762 15.157, 538.184 18.531 C 538.662 22.358, 540.287 21.980, 540.464 18 C 540.683 13.067, 540.102 11.670, 538.415 13.071 C 537.671 13.688, 534.799 14.175, 532.032 14.153 C 527.526 14.119, 526.993 14.344, 526.937 16.307 L 526.873 18.500 525.969 16.250 C 525.471 15.012, 524.375 14, 523.532 14 C 522.690 14, 522 13.550, 522 13 C 522 12.450, 521.325 12, 520.500 12 C 519.363 12, 519 13.231, 519 17.083 M 466.253 16.033 C 467.101 17.392, 467.074 18.206, 466.141 19.330 C 465.211 20.451, 465.192 21, 466.063 21.539 C 466.701 21.934, 467.623 21.636, 468.112 20.878 C 468.680 19.997, 469.270 19.864, 469.750 20.508 C 470.163 21.063, 472.970 21.513, 475.988 21.508 C 481.273 21.500, 481.500 21.389, 482.120 18.500 L 482.763 15.500 482.882 18.833 C 483.027 22.934, 485.214 22.654, 486.132 18.418 L 486.763 15.500 486.882 18.857 C 486.971 21.404, 487.362 22.075, 488.500 21.638 C 489.414 21.288, 490 21.637, 490 22.531 C 490 23.339, 490.450 24, 491 24 C 491.550 24, 492 23.325, 492 22.500 C 492 21.675, 492.337 21.053, 492.750 21.118 C 495.412 21.539, 496.105 20.777, 495.813 17.750 L 495.500 14.500 480.313 14.365 C 465.909 14.236, 465.184 14.322, 466.253 16.033 M 471.600 16.600 C 471.244 17.527, 471.178 18.511, 471.453 18.786 C 471.728 19.061, 472.244 18.527, 472.600 17.600 C 472.956 16.673, 473.022 15.689, 472.747 15.414 C 472.472 15.139, 471.956 15.673, 471.600 16.600 M 492.583 16.866 C 492.152 17.563, 492.070 18.403, 492.400 18.733 C 493.295 19.628, 494.271 18.312, 493.787 16.862 C 493.449 15.846, 493.213 15.846, 492.583 16.866 M 402.687 43.647 C 402.309 44.024, 402 47.183, 402 50.667 L 402 57 423.046 57 L 444.091 57 443.796 50.250 L 443.500 43.500 423.437 43.230 C 412.402 43.081, 403.065 43.269, 402.687 43.647 M 504.687 43.647 C 504.309 44.024, 504 47.183, 504 50.667 L 504 57 525.046 57 L 546.091 57 545.796 50.250 L 545.500 43.500 525.437 43.230 C 514.402 43.081, 505.065 43.269, 504.687 43.647 M 454 45.883 C 454 46.369, 453.069 47.010, 451.931 47.308 C 450.271 47.742, 449.925 48.506, 450.181 51.174 C 450.435 53.820, 450.960 54.523, 452.750 54.613 C 454.790 54.716, 455 54.274, 455 49.863 C 455 47.189, 454.775 45, 454.500 45 C 454.225 45, 454 45.398, 454 45.883 M 462.686 46.376 C 462.361 47.224, 461.221 47.574, 459.720 47.287 C 458.070 46.971, 457.078 47.355, 456.648 48.476 C 456.133 49.817, 456.438 49.998, 458.256 49.432 C 460.413 48.761, 460.403 48.815, 458 50.847 C 455.875 52.643, 455.725 53.110, 457 53.964 C 460.061 56.015, 461.993 55.179, 462.118 51.750 L 462.237 48.500 462.869 51.449 C 463.438 54.098, 463.942 54.428, 467.811 54.687 L 472.119 54.976 471.810 51.238 C 471.567 48.311, 471.039 47.434, 469.377 47.197 C 468.132 47.020, 466.998 47.563, 466.634 48.513 C 466.135 49.811, 466.456 49.994, 468.256 49.441 C 469.490 49.062, 470.275 48.925, 470 49.136 C 469.725 49.348, 468.422 50.417, 467.105 51.511 L 464.709 53.500 465.252 50.563 C 466.080 46.076, 464.064 42.785, 462.686 46.376 M 485.774 46.207 C 485.124 47.986, 486.052 55, 486.938 55 C 487.738 55, 487.579 46.245, 486.763 45.430 C 486.479 45.146, 486.034 45.496, 485.774 46.207 M 489.872 46.663 C 488.802 47.959, 488.775 48.418, 489.750 48.746 C 490.438 48.977, 491 50.479, 491 52.083 C 491 53.688, 491.450 55, 492 55 C 492.550 55, 493 52.750, 493 50 C 493 44.766, 492.170 43.880, 489.872 46.663 M 556 45.883 C 556 46.369, 555.069 47.010, 553.931 47.308 C 552.271 47.742, 551.925 48.506, 552.181 51.174 C 552.435 53.820, 552.960 54.523, 554.750 54.613 C 556.790 54.716, 557 54.274, 557 49.863 C 557 47.189, 556.775 45, 556.500 45 C 556.225 45, 556 45.398, 556 45.883 M 564.686 46.376 C 564.361 47.224, 563.221 47.574, 561.720 47.287 C 560.070 46.971, 559.078 47.355, 558.648 48.476 C 558.133 49.817, 558.438 49.998, 560.256 49.432 C 562.413 48.761, 562.403 48.815, 560 50.847 C 557.875 52.643, 557.725 53.110, 559 53.964 C 562.061 56.015, 563.993 55.179, 564.118 51.750 L 564.237 48.500 564.868 51.418 C 565.874 56.062, 567.637 55.610, 567.404 50.768 C 567.290 48.421, 567.153 46.163, 567.099 45.750 C 566.932 44.482, 565.245 44.920, 564.686 46.376 M 587.774 46.207 C 587.124 47.986, 588.052 55, 588.938 55 C 589.738 55, 589.579 46.245, 588.763 45.430 C 588.479 45.146, 588.034 45.496, 587.774 46.207 M 591.667 45.667 C 590.292 47.041, 591.071 48.112, 593 47.500 C 594.356 47.070, 595 47.320, 595 48.278 C 595 49.054, 594.100 50.505, 593 51.500 C 590.218 54.017, 590.499 55, 594 55 C 595.650 55, 597 54.550, 597 54 C 597 53.450, 596.315 53, 595.477 53 C 594.119 53, 594.122 52.744, 595.500 50.641 C 596.350 49.343, 596.762 47.543, 596.416 46.641 C 595.786 44.999, 592.922 44.411, 591.667 45.667 M 473.400 48.162 C 472.990 48.825, 473.717 50.171, 475.091 51.295 C 477.467 53.240, 477.469 53.257, 475.250 52.566 C 473.857 52.132, 473 52.284, 473 52.964 C 473 54.664, 476.067 55.439, 478.004 54.229 C 479.255 53.448, 480.048 53.448, 480.829 54.229 C 482.361 55.761, 485.182 53.245, 484.798 50.690 C 484.363 47.791, 481.239 46.077, 479.895 48 C 479.107 49.128, 478.722 49.190, 478.341 48.250 C 477.702 46.676, 474.355 46.616, 473.400 48.162 M 568.634 48.513 C 568.137 49.805, 568.464 49.998, 570.256 49.473 L 572.500 48.815 570.202 50.498 C 568.380 51.832, 568.147 52.472, 569.075 53.590 C 569.718 54.366, 571.117 55, 572.183 55 C 573.811 55, 574.071 54.400, 573.810 51.250 C 573.567 48.311, 573.041 47.434, 571.377 47.197 C 570.132 47.020, 568.998 47.563, 568.634 48.513 M 575.400 48.162 C 574.990 48.825, 575.717 50.171, 577.091 51.295 C 579.467 53.240, 579.469 53.257, 577.250 52.566 C 575.857 52.132, 575 52.284, 575 52.964 C 575 54.664, 578.067 55.439, 580.004 54.229 C 581.255 53.448, 582.048 53.448, 582.829 54.229 C 584.361 55.761, 587.182 53.245, 586.798 50.690 C 586.363 47.791, 583.239 46.077, 581.895 48 C 581.107 49.128, 580.722 49.190, 580.341 48.250 C 579.702 46.676, 576.355 46.616, 575.400 48.162 M 451.154 50.438 C 451.345 51.355, 451.950 52.082, 452.500 52.053 C 453.984 51.974, 453.712 49.737, 452.154 49.218 C 451.313 48.938, 450.939 49.395, 451.154 50.438 M 553.500 50 C 553.101 50.646, 553.224 51.624, 553.774 52.174 C 554.441 52.841, 555.016 52.783, 555.500 52 C 555.899 51.354, 555.776 50.376, 555.226 49.826 C 554.559 49.159, 553.984 49.217, 553.500 50 M 26.200 62.200 C 24.753 63.647, 24.587 66.373, 26 65.500 C 26.583 65.139, 27 66.156, 27 67.941 C 27 69.993, 27.494 71, 28.500 71 C 29.633 71, 30 69.778, 30 66 C 30 60.889, 28.755 59.645, 26.200 62.200 M 31.667 61.667 C 30.326 63.008, 30.974 69.776, 32.500 70.362 C 34.394 71.089, 37 70.127, 37 68.702 C 37 68.106, 37.597 68.434, 38.326 69.431 C 39.267 70.717, 40.300 71.039, 41.880 70.538 C 43.785 69.933, 44.063 69.231, 43.803 65.674 C 43.571 62.495, 43.045 61.431, 41.566 61.150 C 40.502 60.948, 39.093 61.520, 38.434 62.421 C 37.379 63.865, 37.167 63.877, 36.650 62.529 C 36.057 60.984, 32.896 60.437, 31.667 61.667 M 34.195 65.500 C 34.215 67.150, 34.439 67.704, 34.693 66.731 C 34.947 65.758, 34.930 64.408, 34.656 63.731 C 34.382 63.054, 34.175 63.850, 34.195 65.500 M 40.232 66 C 40.232 67.925, 40.438 68.713, 40.689 67.750 C 40.941 66.787, 40.941 65.213, 40.689 64.250 C 40.438 63.288, 40.232 64.075, 40.232 66 M 521.638 64.500 C 521.129 65.827, 493.724 66.020, 284.281 66.175 C 154.052 66.271, 49.413 66.522, 51.750 66.732 L 56 67.115 56 87.500 L 56 107.885 51.750 108.268 L 47.500 108.651 51.750 108.825 L 56 109 56 129.943 L 56 150.885 51.750 151.268 L 47.500 151.651 51.750 151.825 L 56 152 56 160.393 C 56 166.931, 55.668 168.913, 54.500 169.362 C 52.562 170.105, 52.562 174.392, 54.500 176 C 55.613 176.924, 56 179.389, 56 185.565 L 56 193.885 51.750 194.268 L 47.500 194.651 51.750 194.825 L 56 195 56 203.393 C 56 209.931, 55.668 211.913, 54.500 212.362 C 52.553 213.109, 52.553 217.891, 54.500 218.638 C 55.667 219.086, 56 221.063, 56 227.549 L 56 235.885 51.750 236.268 L 47.500 236.651 51.750 236.825 L 56 237 56 257.943 L 56 278.885 51.750 279.268 L 47.500 279.651 51.750 279.825 L 56 280 56 300.443 L 56 320.885 51.750 321.268 L 47.500 321.651 51.750 321.825 L 56 322 56 342.943 L 56 363.885 51.750 364.268 L 47.500 364.651 51.750 364.825 L 56 365 56 385.443 L 56 405.885 51.750 406.268 L 47.500 406.651 51.750 406.825 L 56 407 56 427.943 L 56 448.885 51.750 449.268 L 47.500 449.651 51.690 449.825 C 55.757 449.995, 55.891 450.110, 56.272 453.750 L 56.664 457.500 56.832 453.750 L 57 450 134.440 450 L 211.879 450 212.272 453.750 L 212.664 457.500 212.832 453.750 L 213 450 290.440 450 L 367.879 450 368.272 453.750 L 368.664 457.500 368.832 453.750 L 369 450 446.940 450 L 524.879 450 525.272 453.750 L 525.664 457.500 525.832 453.750 L 526 450 603.440 450 L 680.879 450 681.272 453.750 L 681.664 457.500 681.832 453.750 L 682 450 759.440 450 L 836.879 450 837.272 453.750 L 837.664 457.500 837.832 453.750 L 838 450 915.440 450 L 992.879 450 993.272 453.750 C 993.487 455.813, 993.739 427.688, 993.832 391.250 C 993.938 349.477, 994.356 325, 994.965 325 C 995.495 325, 996.406 324.110, 996.988 323.023 C 997.828 321.453, 997.630 320.630, 996.023 319.023 C 994.045 317.045, 994 315.859, 994 265.969 C 994 221.530, 994.194 214.863, 995.500 214.362 C 996.337 214.041, 997 212.554, 997 211 C 997 209.446, 996.337 207.959, 995.500 207.638 C 994.186 207.134, 994 198.303, 994 136.531 L 994 66 761.469 66 C 555.697 66, 528.871 65.827, 528.362 64.500 C 528.041 63.663, 526.554 63, 525 63 C 523.446 63, 521.959 63.663, 521.638 64.500 M 57 87.500 L 57 108 134.500 108 L 212 108 212 87.500 L 212 67 134.500 67 L 57 67 57 87.500 M 213 87.500 L 213 108 290.500 108 L 368 108 368 87.500 L 368 67 290.500 67 L 213 67 213 87.500 M 369 87.500 L 369 108 447 108 L 525 108 525 89.410 C 525 71.355, 524.935 70.767, 522.750 68.944 C 520.593 67.145, 517.353 67.065, 444.750 67.033 L 369 67 369 87.500 M 527.655 68.829 C 526.239 70.393, 526 73.358, 526 89.329 L 526 108 603.500 108 L 681 108 681 87.500 L 681 67 605.155 67 C 532.948 67, 529.231 67.088, 527.655 68.829 M 682 87.500 L 682 108 759.500 108 L 837 108 837 87.500 L 837 67 759.500 67 L 682 67 682 87.500 M 838 87.500 L 838 108 915.500 108 L 993 108 993 87.500 L 993 67 915.500 67 L 838 67 838 87.500 M 31.667 104.667 C 30.158 106.175, 31.098 109.213, 33.250 109.787 C 35.492 110.385, 35.491 110.389, 33 111.056 C 30.732 111.663, 30.675 111.799, 32.386 112.521 C 33.440 112.967, 34.982 112.871, 35.881 112.303 C 36.968 111.618, 38.016 111.617, 39.112 112.302 C 42.037 114.129, 44 112.413, 44 108.031 C 44 104.491, 43.720 104, 41.700 104 C 40.435 104, 38.860 104.540, 38.200 105.200 C 37.267 106.133, 37 106.133, 37 105.200 C 37 103.939, 32.813 103.521, 31.667 104.667 M 34.079 106.583 C 34.127 107.748, 34.364 107.985, 34.683 107.188 C 34.972 106.466, 34.936 105.603, 34.604 105.271 C 34.272 104.939, 34.036 105.529, 34.079 106.583 M 41.195 108.500 C 41.215 110.150, 41.439 110.704, 41.693 109.731 C 41.947 108.758, 41.930 107.408, 41.656 106.731 C 41.382 106.054, 41.175 106.850, 41.195 108.500 M 57 130 L 57 151 134.500 151 L 212 151 212 133.969 C 212 119.752, 211.752 116.842, 210.500 116.362 C 208.703 115.672, 208.519 111.881, 210.200 110.200 C 211.133 109.267, 194.244 109, 134.200 109 L 57 109 57 130 M 214.750 109.662 C 216.524 110.378, 216.324 115.938, 214.500 116.638 C 213.249 117.119, 213 120.013, 213 134.107 L 213 151 288.500 151 C 362.667 151, 364.035 150.965, 366 149 C 367.860 147.140, 368 145.667, 368 128 L 368 109 290.750 109.079 C 248.262 109.122, 214.063 109.385, 214.750 109.662 M 369 128.090 C 369 146.664, 369.061 147.230, 371.250 149.056 C 373.406 150.855, 376.628 150.935, 448.372 150.967 C 513.715 150.996, 523.092 150.815, 522.040 149.548 C 520.610 147.826, 521.473 144.416, 523.538 143.624 C 524.741 143.162, 525 140.051, 525 126.031 L 525 109 447 109 L 369 109 369 128.090 M 526 126.393 C 526 140.931, 526.246 143.881, 527.500 144.362 C 529.300 145.052, 529.470 148.130, 527.800 149.800 C 526.867 150.733, 543.756 151, 603.800 151 L 681 151 681 130 L 681 109 603.500 109 L 526 109 526 126.393 M 682 130 L 682 151 759.500 151 L 837 151 837 130 L 837 109 759.500 109 L 682 109 682 130 M 838 130 L 838 151 915.500 151 L 993 151 993 130 L 993 109 915.500 109 L 838 109 838 130 M 32.353 146.765 C 30.862 147.719, 31.167 153.567, 32.791 155.191 C 33.718 156.118, 34.506 156.165, 35.780 155.369 C 36.963 154.630, 38.019 154.610, 39.119 155.303 C 42.035 157.143, 44 155.410, 44 151 C 44 146.487, 42.035 144.872, 38.914 146.822 C 37.755 147.546, 36.873 147.603, 36.487 146.980 C 35.775 145.826, 33.965 145.733, 32.353 146.765 M 41.158 151 C 41.158 152.375, 41.385 152.938, 41.662 152.250 C 41.940 151.563, 41.940 150.438, 41.662 149.750 C 41.385 149.063, 41.158 149.625, 41.158 151 M 57 160.393 C 57 166.931, 57.332 168.913, 58.500 169.362 C 59.325 169.678, 60 171.090, 60 172.500 C 60 173.910, 59.325 175.322, 58.500 175.638 C 57.322 176.090, 57 178.125, 57 185.107 L 57 194 134.500 194 L 212 194 212 173 L 212 152 134.500 152 L 57 152 57 160.393 M 213 173 L 213 194 290.500 194 L 368 194 368 175.011 C 368 158.489, 367.776 155.762, 366.278 154.011 C 364.580 152.029, 363.462 152, 288.778 152 L 213 152 213 173 M 371.250 153.944 C 369.061 155.770, 369 156.336, 369 174.910 L 369 194 447 194 L 525 194 525 173 L 525 152 449.250 152.033 C 376.647 152.065, 373.407 152.145, 371.250 153.944 M 526 173 L 526 194 603.500 194 L 681 194 681 173 L 681 152 603.500 152 L 526 152 526 173 M 682 173 L 682 194 759.500 194 L 837 194 837 173 L 837 152 759.500 152 L 682 152 682 173 M 838 173 L 838 194 915.500 194 L 993 194 993 173 L 993 152 915.500 152 L 838 152 838 173 M 32.740 189.722 C 34.873 190.117, 34.909 190.275, 33.490 193.019 C 31.603 196.668, 31.606 198, 33.500 198 C 34.325 198, 35 197.295, 35 196.434 C 35 195.573, 35.550 193.886, 36.223 192.684 C 37.393 190.594, 37.469 190.650, 37.973 194 C 38.412 196.917, 38.958 197.553, 41.250 197.816 C 43.888 198.120, 44 197.950, 44 193.653 L 44 189.174 37.250 189.241 C 33.538 189.278, 31.508 189.494, 32.740 189.722 M 41.195 193.500 C 41.215 195.150, 41.439 195.704, 41.693 194.731 C 41.947 193.758, 41.930 192.408, 41.656 191.731 C 41.382 191.054, 41.175 191.850, 41.195 193.500 M 57 203.393 C 57 209.931, 57.332 211.913, 58.500 212.362 C 59.325 212.678, 60 214.090, 60 215.500 C 60 216.910, 59.325 218.322, 58.500 218.638 C 57.332 219.087, 57 221.069, 57 227.607 L 57 236 134.500 236 L 212 236 212 215.500 L 212 195 134.500 195 L 57 195 57 203.393 M 213 215.500 L 213 236 290.500 236 L 368 236 368 215.500 L 368 195 290.500 195 L 213 195 213 215.500 M 369 215.500 L 369 236 447 236 L 525 236 525 215.500 L 525 195 447 195 L 369 195 369 215.500 M 526 215.500 L 526 236 603.500 236 L 681 236 681 215.500 L 681 195 603.500 195 L 526 195 526 215.500 M 682 215.500 L 682 236 759.500 236 L 837 236 837 215.500 L 837 195 759.500 195 L 682 195 682 215.500 M 838 215.500 L 838 236 915.500 236 L 993 236 993 225.622 C 993 217.618, 992.657 214.960, 991.500 214 C 990.675 213.315, 990 211.965, 990 211 C 990 210.035, 990.675 208.685, 991.500 208 C 992.522 207.152, 993 204.882, 993 200.878 L 993 195 915.500 195 L 838 195 838 215.500 M 32.200 232.200 C 29.037 235.363, 32.258 242.569, 35.836 240.334 C 36.975 239.623, 38.026 239.614, 39.119 240.303 C 42.035 242.143, 44 240.410, 44 236 C 44 231.501, 42.415 230.172, 39.139 231.926 C 37.805 232.640, 36.911 232.666, 36.502 232.003 C 35.664 230.647, 33.662 230.738, 32.200 232.200 M 36.500 235 C 36.840 235.550, 37.316 236, 37.559 236 C 37.802 236, 38 235.550, 38 235 C 38 234.450, 37.523 234, 36.941 234 C 36.359 234, 36.160 234.450, 36.500 235 M 41.158 236 C 41.158 237.375, 41.385 237.938, 41.662 237.250 C 41.940 236.563, 41.940 235.438, 41.662 234.750 C 41.385 234.063, 41.158 234.625, 41.158 236 M 34.079 237.583 C 34.127 238.748, 34.364 238.985, 34.683 238.188 C 34.972 237.466, 34.936 236.603, 34.604 236.271 C 34.272 235.939, 34.036 236.529, 34.079 237.583 M 57 258 L 57 279 134.500 279 L 212 279 212 261.607 C 212 247.069, 211.754 244.119, 210.500 243.638 C 208.687 242.943, 208.496 238.370, 210.250 237.662 C 210.938 237.385, 176.738 237.122, 134.250 237.079 L 57 237 57 258 M 215.758 239.807 C 216.016 241.564, 215.577 243.106, 214.585 243.929 C 213.253 245.035, 213 247.937, 213 262.122 L 213 279 290.500 279 L 368 279 368 258 L 368 237 291.673 237 L 215.346 237 215.758 239.807 M 369 258 L 369 279 447 279 L 525 279 525 258 L 525 237 447 237 L 369 237 369 258 M 526 258 L 526 279 603.500 279 L 681 279 681 268 C 681 261.601, 680.596 257, 680.035 257 C 679.505 257, 678.594 256.110, 678.012 255.023 C 677.172 253.453, 677.370 252.630, 678.977 251.023 C 680.558 249.442, 681 247.689, 681 243 L 681 237 603.500 237 L 526 237 526 258 M 682 243.393 C 682 248.153, 682.383 249.933, 683.500 250.362 C 684.325 250.678, 685 252.090, 685 253.500 C 685 254.910, 684.325 256.322, 683.500 256.638 C 682.294 257.101, 682 259.347, 682 268.107 L 682 279 759.500 279 L 837 279 837 270.622 C 837 264.396, 836.615 261.925, 835.500 261 C 834.675 260.315, 834 258.671, 834 257.346 C 834 256.021, 834.675 254.678, 835.500 254.362 C 836.668 253.913, 837 251.931, 837 245.393 L 837 237 759.500 237 L 682 237 682 243.393 M 838 245.531 C 838 252.192, 838.329 254.189, 839.500 254.638 C 840.325 254.955, 841 256.236, 841 257.485 C 841 258.733, 840.325 260.315, 839.500 261 C 838.385 261.925, 838 264.396, 838 270.622 L 838 279 915.500 279 L 993 279 993 258 L 993 237 915.500 237 L 838 237 838 245.531 M 8.515 242.818 C 7.576 243.758, 7.982 246.871, 9.137 247.585 C 9.769 247.975, 11.130 247.224, 12.200 245.894 L 14.125 243.500 13.455 246 C 12.840 248.296, 12.919 248.372, 14.429 246.928 C 16.795 244.665, 15.447 242.121, 11.934 242.221 C 10.337 242.266, 8.798 242.535, 8.515 242.818 M 6 249.813 C 6 251.034, 14.731 251.244, 15.474 250.042 C 15.888 249.372, 14.312 249, 11.059 249 C 8.277 249, 6 249.366, 6 249.813 M 8 253 C 8 253.550, 8.505 254, 9.122 254 C 9.878 254, 9.821 254.511, 8.948 255.563 C 7.810 256.934, 8.009 257.056, 10.575 256.557 L 13.500 255.988 10.694 257.096 C 8.680 257.891, 7.974 258.789, 8.194 260.274 C 8.362 261.412, 9.027 262.517, 9.671 262.729 C 10.417 262.974, 10.679 262.276, 10.393 260.807 L 9.944 258.500 10.940 260.750 C 11.867 262.846, 14.877 263.931, 15.099 262.250 C 15.646 258.113, 15.547 255.838, 14.799 255.376 C 14.304 255.070, 14.427 254.191, 15.074 253.411 C 16.448 251.756, 15.626 251.594, 12.995 253.003 C 11.743 253.673, 10.916 253.673, 10.502 253.003 C 9.701 251.707, 8 251.705, 8 253 M 11 265.941 C 11 267.073, 11.450 268, 12 268 C 12.550 268, 13 267.352, 13 266.559 C 13 265.766, 12.550 264.840, 12 264.500 C 11.450 264.160, 11 264.809, 11 265.941 M 9.441 270.532 C 11.134 271.812, 11.166 272, 9.691 272 C 8.761 272, 8 272.459, 8 273.019 C 8 273.641, 9.072 273.754, 10.750 273.309 C 12.262 272.909, 14.512 272.628, 15.750 272.685 C 16.988 272.742, 18 272.588, 18 272.343 C 18 271.591, 11.173 268.998, 9.282 269.032 C 7.642 269.061, 7.655 269.181, 9.441 270.532 M 31.608 275.580 C 30.593 278.225, 30.908 279, 33 279 C 34.100 279, 35 279.633, 35 280.406 C 35 281.354, 34.297 281.629, 32.844 281.249 C 31.366 280.862, 30.912 281.049, 31.403 281.842 C 32.348 283.372, 37 283.337, 37 281.800 C 37 280.867, 37.267 280.867, 38.200 281.800 C 38.860 282.460, 40.461 283, 41.757 283 C 43.913 283, 44.089 282.635, 43.807 278.750 L 43.500 274.500 37.858 274.248 C 33.472 274.052, 32.080 274.348, 31.608 275.580 M 34.500 276 C 34.160 276.550, 34.546 277, 35.358 277 C 36.169 277, 37.060 277.563, 37.338 278.250 C 37.615 278.938, 37.878 278.488, 37.921 277.250 C 38.002 274.957, 35.671 274.106, 34.500 276 M 41.195 278.500 C 41.215 280.150, 41.439 280.704, 41.693 279.731 C 41.947 278.758, 41.930 277.408, 41.656 276.731 C 41.382 276.054, 41.175 276.850, 41.195 278.500 M 57 300.500 L 57 321 134.500 321 L 212 321 212 300.500 L 212 280 134.500 280 L 57 280 57 300.500 M 213 300.500 L 213 321 290.500 321 L 368 321 368 300.500 L 368 280 290.500 280 L 213 280 213 300.500 M 369 300.500 L 369 321 447 321 L 525 321 525 300.500 L 525 280 447 280 L 369 280 369 300.500 M 526 300.500 L 526 321 603.500 321 L 681 321 681 300.500 L 681 280 603.500 280 L 526 280 526 300.500 M 682 300.500 L 682 321 759.500 321 L 837 321 837 300.500 L 837 280 759.500 280 L 682 280 682 300.500 M 838 300.500 L 838 321 913.500 321 C 987.667 321, 989.035 320.965, 991 319 C 992.856 317.144, 993 315.667, 993 298.500 L 993 280 915.500 280 L 838 280 838 300.500 M 32.685 319.534 C 30.630 323.844, 30.623 324, 32.500 324 C 33.325 324, 34 324.450, 34 325 C 34 325.550, 34.675 326, 35.500 326 C 36.325 326, 37 325.546, 37 324.992 C 37 324.370, 37.716 324.430, 38.868 325.149 C 39.895 325.791, 41.470 326.034, 42.368 325.689 C 44.544 324.854, 44.652 317.464, 42.500 316.638 C 40.064 315.704, 38.145 316.983, 37.708 319.835 C 37.344 322.212, 37.283 322.149, 37.150 319.250 C 36.951 314.932, 34.815 315.067, 32.685 319.534 M 41.195 321.500 C 41.215 323.150, 41.439 323.704, 41.693 322.731 C 41.947 321.758, 41.930 320.408, 41.656 319.731 C 41.382 319.054, 41.175 319.850, 41.195 321.500 M 57 343 L 57 364 134.500 364 L 212 364 212 343 L 212 322 134.500 322 L 57 322 57 343 M 213 343 L 213 364 290.500 364 L 368 364 368 343 L 368 322 290.500 322 L 213 322 213 343 M 369 343 L 369 364 447 364 L 525 364 525 343 L 525 322 447 322 L 369 322 369 343 M 526 343 L 526 364 603.500 364 L 681 364 681 343 L 681 322 603.500 322 L 526 322 526 343 M 682 343 L 682 364 759.500 364 L 837 364 837 343 L 837 322 759.500 322 L 682 322 682 343 M 838 343 L 838 364 915.500 364 L 993 364 993 345 C 993 327.333, 992.860 325.860, 991 324 C 989.035 322.035, 987.667 322, 913.500 322 L 838 322 838 343 M 31.474 360.043 C 31.148 360.569, 31.921 361.007, 33.191 361.015 C 35.096 361.028, 35.238 361.216, 34 362.091 C 32.871 362.890, 32.809 363.278, 33.750 363.659 C 35.985 364.566, 35.182 366.860, 32.844 366.249 C 31.366 365.862, 30.912 366.049, 31.403 366.842 C 32.348 368.372, 37 368.337, 37 366.800 C 37 365.867, 37.267 365.867, 38.200 366.800 C 38.860 367.460, 40.461 368, 41.757 368 C 43.913 368, 44.089 367.635, 43.807 363.750 L 43.500 359.500 37.783 359.293 C 34.638 359.178, 31.799 359.516, 31.474 360.043 M 41.195 363.500 C 41.215 365.150, 41.439 365.704, 41.693 364.731 C 41.947 363.758, 41.930 362.408, 41.656 361.731 C 41.382 361.054, 41.175 361.850, 41.195 363.500 M 57 385.500 L 57 406 134.500 406 L 212 406 212 385.500 L 212 365 134.500 365 L 57 365 57 385.500 M 213 385.500 L 213 406 290.500 406 L 368 406 368 385.500 L 368 365 290.500 365 L 213 365 213 385.500 M 369 385.500 L 369 406 447 406 L 525 406 525 385.500 L 525 365 447 365 L 369 365 369 385.500 M 526 385.500 L 526 406 603.500 406 L 681 406 681 385.500 L 681 365 603.500 365 L 526 365 526 385.500 M 682 385.500 L 682 406 759.500 406 L 837 406 837 385.500 L 837 365 759.500 365 L 682 365 682 385.500 M 838 385.500 L 838 406 915.500 406 L 993 406 993 385.500 L 993 365 915.500 365 L 838 365 838 385.500 M 32.250 401.662 C 30.189 402.494, 30.841 404.275, 33 403.710 C 34.100 403.423, 35 403.412, 35 403.686 C 35 403.960, 34.100 405.329, 33 406.727 C 31.900 408.126, 31 409.667, 31 410.152 C 31 410.638, 33.813 410.915, 37.250 410.767 L 43.500 410.500 43.801 406.377 C 44.135 401.815, 42.358 400.203, 38.988 402.006 C 37.743 402.673, 36.915 402.671, 36.502 402.003 C 35.848 400.945, 34.329 400.824, 32.250 401.662 M 41.195 406.500 C 41.215 408.150, 41.439 408.704, 41.693 407.731 C 41.947 406.758, 41.930 405.408, 41.656 404.731 C 41.382 404.054, 41.175 404.850, 41.195 406.500 M 36 407.500 C 34.980 408.729, 35.049 409, 36.378 409 C 37.270 409, 38 408.325, 38 407.500 C 38 406.675, 37.830 406, 37.622 406 C 37.415 406, 36.685 406.675, 36 407.500 M 57 428 L 57 449 134.500 449 L 212 449 212 428 L 212 407 134.500 407 L 57 407 57 428 M 213 428 L 213 449 290.500 449 L 368 449 368 428 L 368 407 290.500 407 L 213 407 213 428 M 369 428 L 369 449 447 449 L 525 449 525 428 L 525 407 447 407 L 369 407 369 428 M 526 428 L 526 449 603.500 449 L 681 449 681 428 L 681 407 603.500 407 L 526 407 526 428 M 682 428 L 682 449 759.250 448.921 C 801.737 448.878, 835.938 448.615, 835.250 448.338 C 833.486 447.626, 833.683 442.336, 835.500 441.638 C 836.752 441.158, 837 438.248, 837 424.031 L 837 407 759.500 407 L 682 407 682 428 M 838 424.031 C 838 438.248, 838.248 441.158, 839.500 441.638 C 841.297 442.328, 841.481 446.119, 839.800 447.800 C 838.867 448.733, 855.756 449, 915.800 449 L 993 449 993 428 L 993 407 915.500 407 L 838 407 838 424.031 M 32.872 445.663 C 31.802 446.959, 31.775 447.418, 32.750 447.746 C 33.438 447.977, 34 449.517, 34 451.167 C 34 456.109, 36.462 453.919, 36.805 448.672 C 37.134 443.628, 35.551 442.417, 32.872 445.663 M 38.709 444.624 C 37.220 446.113, 37.990 451.924, 39.804 452.895 C 42.664 454.425, 44.174 452.734, 43.819 448.398 C 43.571 445.366, 43.047 444.435, 41.459 444.208 C 40.336 444.047, 39.099 444.235, 38.709 444.624 M 41.195 448.500 C 41.215 450.150, 41.439 450.704, 41.693 449.731 C 41.947 448.758, 41.930 447.408, 41.656 446.731 C 41.382 446.054, 41.175 446.850, 41.195 448.500 M 55.200 463.200 C 53.753 464.647, 53.587 467.373, 55 466.500 C 55.583 466.139, 56 467.156, 56 468.941 C 56 470.993, 56.494 472, 57.500 472 C 58.633 472, 59 470.778, 59 467 C 59 461.889, 57.755 460.645, 55.200 463.200 M 210 463.541 C 210 464.617, 210.535 465.009, 211.500 464.638 C 213.522 463.862, 213.388 464.692, 211 467.727 C 208.217 471.265, 208.475 472, 212.500 472 C 214.425 472, 216 471.550, 216 471 C 216 470.450, 215.255 470, 214.345 470 C 212.835 470, 212.843 469.831, 214.433 468.074 C 216.885 465.364, 216.083 462.569, 212.741 462.184 C 210.719 461.950, 210 462.306, 210 463.541 M 366.709 462.624 C 365.537 463.796, 365.910 465.248, 367.250 464.736 C 368.043 464.432, 368.575 465.288, 368.706 467.080 C 368.860 469.189, 368.543 469.762, 367.456 469.345 C 366.655 469.037, 366 469.298, 366 469.924 C 366 471.713, 368.867 472.356, 370.563 470.947 C 372.906 469.003, 372.095 462.585, 369.459 462.208 C 368.336 462.047, 367.099 462.235, 366.709 462.624 M 523.526 464.950 C 521.626 468.625, 521.596 470, 523.417 470 C 524.196 470, 525.062 470.563, 525.341 471.250 C 526.047 472.992, 528.153 469.973, 527.489 468.168 C 527.220 467.436, 527 465.748, 527 464.418 C 527 461.127, 525.374 461.376, 523.526 464.950 M 678.607 463.582 C 677.399 466.730, 677.908 468.164, 680 467.500 C 681.382 467.061, 682 467.320, 682 468.339 C 682 469.320, 681.332 469.638, 680 469.290 C 677.642 468.673, 677.277 470.509, 679.582 471.393 C 682.141 472.375, 682.864 472.123, 684.098 469.817 C 685.093 467.958, 684.933 467.364, 683.022 465.817 C 680.791 464.010, 680.790 464, 682.889 464 C 684.050 464, 685 463.550, 685 463 C 685 461.328, 679.272 461.849, 678.607 463.582 M 835.050 463.440 C 833.422 465.402, 834.114 470.057, 836.231 471.382 C 838.854 473.024, 841.933 469.723, 840.267 467.055 C 839.383 465.640, 839.369 465.044, 840.213 464.762 C 841.894 464.202, 840.181 462, 838.063 462 C 837.063 462, 835.707 462.648, 835.050 463.440 M 990 463 C 990 463.550, 990.912 464, 992.026 464 C 993.947 464, 993.973 464.152, 992.526 466.950 C 990.671 470.536, 990.593 472, 992.255 472 C 992.946 472, 994.004 470.538, 994.608 468.750 C 995.211 466.962, 996.044 464.712, 996.459 463.750 C 997.099 462.267, 996.663 462, 993.607 462 C 991.623 462, 990 462.450, 990 463 M 837.079 468.583 C 837.127 469.748, 837.364 469.985, 837.683 469.188 C 837.972 468.466, 837.936 467.603, 837.604 467.271 C 837.272 466.939, 837.036 467.529, 837.079 468.583 M 532.733 483.750 C 531.781 485.601, 531.934 493, 532.924 493 C 533.549 493, 534 490.903, 534 488 C 534 483.291, 533.621 482.021, 532.733 483.750 M 509.455 489.027 C 509.455 492.929, 510.343 494.214, 511.338 491.750 C 511.741 490.750, 511.858 490.750, 511.921 491.750 C 511.964 492.438, 512.345 493, 512.767 493 C 513.189 493, 513.581 491.193, 513.639 488.984 C 513.718 485.973, 513.445 485.216, 512.548 485.960 C 511.794 486.586, 511.002 486.602, 510.403 486.003 C 509.805 485.405, 509.455 486.521, 509.455 489.027 M 521.250 485.731 C 520.563 485.970, 520 486.627, 520 487.190 C 520 487.753, 520.661 487.960, 521.468 487.651 C 522.275 487.341, 523.202 487.518, 523.527 488.044 C 523.852 488.570, 523.191 489, 522.059 489 C 520.667 489, 520 489.648, 520 491 C 520 492.596, 520.667 493, 523.300 493 C 525.115 493, 527.140 492.460, 527.800 491.800 C 528.733 490.867, 529 490.867, 529 491.800 C 529 492.460, 529.466 493, 530.035 493 C 530.723 493, 530.746 492.395, 530.105 491.196 C 529.515 490.094, 529.495 488.830, 530.054 487.946 C 531.410 485.804, 531.192 484.596, 529.676 485.854 C 528.707 486.658, 528.009 486.624, 527.071 485.726 C 526.036 484.736, 525.917 485.107, 526.453 487.655 C 526.845 489.518, 526.684 491.077, 526.059 491.464 C 525.405 491.868, 525 490.988, 525 489.166 C 525 486.207, 523.589 484.915, 521.250 485.731 M 535.667 485.667 C 534.315 487.018, 535.063 489.092, 537.250 490.060 L 539.500 491.056 537.193 490.607 C 535.723 490.320, 535.027 490.582, 535.276 491.329 C 535.825 492.979, 538.992 493.412, 540.356 492.023 C 541.218 491.145, 540.884 490.350, 539 488.796 L 536.500 486.734 539 487.419 C 541.401 488.077, 541.423 488.042, 539.559 486.552 C 537.419 484.841, 536.664 484.670, 535.667 485.667 M 515 489 C 515 489.550, 515.675 490, 516.500 490 C 517.325 490, 518 489.550, 518 489 C 518 488.450, 517.325 488, 516.500 488 C 515.675 488, 515 488.450, 515 489" stroke="none" fill="black" fill-rule="evenodd"/>
	<path fill-opacity="0.336" d="M 458 16.500 C 458 20.938, 458.045 20.998, 461.250 20.864 C 463.600 20.765, 463.877 20.608, 462.250 20.294 C 461.012 20.056, 460 19.248, 460 18.500 C 460 17.752, 461.012 16.944, 462.250 16.706 L 464.500 16.272 462.250 16.136 C 461.012 16.061, 460 15.356, 460 14.570 C 460 13.783, 461.012 12.944, 462.250 12.706 C 463.877 12.392, 463.600 12.235, 461.250 12.136 C 458.045 12.002, 458 12.062, 458 16.500 M 497 16.500 C 497 18.975, 497.450 21, 498 21 C 498.550 21, 499 18.975, 499 16.500 C 499 14.025, 498.550 12, 498 12 C 497.450 12, 497 14.025, 497 16.500 M 512.050 13.440 C 511.393 14.231, 511.001 16.144, 511.178 17.690 C 511.433 19.914, 512.073 20.566, 514.250 20.816 C 515.819 20.997, 517 20.646, 517 19.999 C 517 19.308, 516.192 19.122, 514.930 19.522 C 513.083 20.109, 512.894 19.820, 513.180 16.840 C 513.430 14.228, 513.903 13.569, 515.350 13.817 C 516.461 14.007, 516.937 13.707, 516.541 13.067 C 515.612 11.563, 513.459 11.742, 512.050 13.440 M 519 16.500 C 519 18.975, 519.398 21, 519.883 21 C 521.014 21, 521.912 16.381, 521.264 13.900 C 520.349 10.402, 519 11.951, 519 16.500 M 538.300 13.100 C 537.713 13.687, 535.159 14.167, 532.624 14.167 C 530.089 14.167, 527.763 14.574, 527.456 15.072 C 527.148 15.570, 527.707 15.721, 528.698 15.407 C 530.407 14.866, 530.410 14.911, 528.750 16.279 C 525.584 18.888, 526.555 21, 530.921 21 C 534.464 21, 534.905 20.711, 535.500 18 C 535.862 16.350, 536.573 15, 537.079 15 C 537.586 15, 538 16.350, 538 18 C 538 19.733, 538.528 21, 539.250 21 C 540.070 21.001, 540.448 19.601, 540.350 16.934 C 540.178 12.293, 539.805 11.595, 538.300 13.100 M 466.400 17.333 C 466.400 20.256, 466.720 20.667, 469 20.667 C 471.280 20.667, 471.600 20.256, 471.600 17.333 C 471.600 13.954, 470.647 12.970, 469.583 15.250 C 469.117 16.250, 468.883 16.250, 468.417 15.250 C 467.353 12.970, 466.400 13.954, 466.400 17.333 M 473.515 14.977 C 473.149 15.568, 473.632 15.744, 474.698 15.407 C 476.407 14.866, 476.410 14.911, 474.750 16.279 C 471.559 18.908, 472.555 21, 477 21 C 480.283 21, 481.027 20.642, 481.150 19 C 481.233 17.900, 481.345 16.447, 481.400 15.771 C 481.522 14.265, 474.398 13.548, 473.515 14.977 M 482.810 17.500 C 483.299 21.684, 484.562 22.069, 485.291 18.256 C 485.885 15.149, 485.440 14, 483.642 14 C 482.813 14, 482.537 15.162, 482.810 17.500 M 486.808 17.483 C 487.034 19.417, 487.648 21, 488.173 21 C 489.457 21, 488.780 14.746, 487.449 14.310 C 486.799 14.097, 486.554 15.308, 486.808 17.483 M 490 18.560 C 490 21.002, 490.450 23, 491 23 C 491.550 23, 492 22.602, 492 22.117 C 492 21.631, 492.933 20.989, 494.074 20.691 C 495.663 20.275, 496.072 19.493, 495.824 17.341 C 495.564 15.085, 494.959 14.492, 492.750 14.326 C 490.132 14.130, 490 14.333, 490 18.560 M 501.384 15.442 C 500.389 18.034, 501.476 20.494, 503.760 20.820 C 504.992 20.995, 506 20.672, 506 20.101 C 506 19.530, 505.325 19.322, 504.500 19.638 C 503.675 19.955, 503 19.716, 503 19.107 C 503 18.498, 503.900 18, 505 18 C 507.267 18, 507.563 16.963, 505.800 15.200 C 504.172 13.572, 502.057 13.688, 501.384 15.442 M 522.808 17.483 C 523.034 19.417, 523.648 21, 524.173 21 C 525.457 21, 524.780 14.746, 523.449 14.310 C 522.799 14.097, 522.554 15.308, 522.808 17.483 M 503 16 C 503 16.550, 503.477 17, 504.059 17 C 504.641 17, 504.840 16.550, 504.500 16 C 504.160 15.450, 503.684 15, 503.441 15 C 503.198 15, 503 15.450, 503 16 M 492 17.441 C 492 18.234, 492.450 19.160, 493 19.500 C 493.550 19.840, 494 19.191, 494 18.059 C 494 16.927, 493.550 16, 493 16 C 492.450 16, 492 16.648, 492 17.441 M 475 19.059 C 475 19.641, 475.450 19.840, 476 19.500 C 476.550 19.160, 477 18.684, 477 18.441 C 477 18.198, 476.550 18, 476 18 C 475.450 18, 475 18.477, 475 19.059 M 529 19.059 C 529 19.641, 529.450 19.840, 530 19.500 C 530.550 19.160, 531 18.684, 531 18.441 C 531 18.198, 530.550 18, 530 18 C 529.450 18, 529 18.477, 529 19.059 M 402 50.500 L 402 57 423 57 L 444 57 444 50.500 L 444 44 423 44 L 402 44 402 50.500 M 504 50.500 L 504 57 525 57 L 546 57 546 50.500 L 546 44 525 44 L 504 44 504 50.500 M 454 46.500 C 454 47.325, 453.663 47.947, 453.250 47.882 C 450.691 47.478, 449.893 48.224, 450.184 50.750 C 450.410 52.719, 451.139 53.591, 452.750 53.820 C 454.802 54.111, 455 53.736, 455 49.570 C 455 47.056, 454.775 45, 454.500 45 C 454.225 45, 454 45.675, 454 46.500 M 485.818 46.047 C 485.265 47.705, 486.089 54, 486.859 54 C 487.595 54.001, 487.453 46.120, 486.704 45.371 C 486.431 45.098, 486.033 45.402, 485.818 46.047 M 556 46.500 C 556 47.325, 555.508 47.888, 554.907 47.750 C 553.311 47.385, 551.579 50.461, 552.309 52.364 C 552.655 53.264, 553.851 54, 554.969 54 C 556.710 54, 557 53.357, 557 49.500 C 557 47.025, 556.775 45, 556.500 45 C 556.225 45, 556 45.675, 556 46.500 M 587.818 46.047 C 587.265 47.705, 588.089 54, 588.859 54 C 589.644 54, 589.568 46.235, 588.776 45.443 C 588.464 45.130, 588.033 45.402, 587.818 46.047 M 592.500 46 C 592.160 46.550, 592.584 47, 593.441 47 C 595.430 47, 595.431 48.939, 593.443 51.777 C 591.968 53.884, 592.007 53.996, 594.193 53.921 C 595.462 53.878, 595.961 53.623, 595.302 53.355 C 594.410 52.992, 594.380 52.261, 595.183 50.498 C 596.829 46.885, 594.434 42.871, 592.500 46 M 462.864 46.469 C 462.189 47.145, 463.095 54, 463.859 54 C 464.212 54, 464.494 52.456, 464.487 50.570 C 464.474 47.219, 463.805 45.528, 462.864 46.469 M 490.752 46.750 C 490.551 47.163, 490.691 49.075, 491.062 51 L 491.737 54.500 491.868 50.250 C 491.992 46.261, 491.596 45.019, 490.752 46.750 M 565 49.833 C 565 52.125, 565.337 54, 565.750 54 C 566.718 54, 566.706 47.373, 565.737 46.404 C 565.332 45.998, 565 47.542, 565 49.833 M 457.500 48 C 457.160 48.550, 457.584 49, 458.441 49 C 459.298 49, 460 49.450, 460 50 C 460 50.550, 459.325 51, 458.500 51 C 457.675 51, 457 51.675, 457 52.500 C 457 53.433, 457.944 54, 459.500 54 C 461.591 54, 462 53.526, 462 51.107 C 462 49.391, 461.356 47.967, 460.418 47.607 C 458.344 46.811, 458.225 46.827, 457.500 48 M 467.500 48 C 467.160 48.550, 467.584 49, 468.441 49 C 469.298 49, 470 49.450, 470 50 C 470 50.550, 469.325 51, 468.500 51 C 467.675 51, 467 51.675, 467 52.500 C 467 53.433, 467.944 54, 469.500 54 C 471.591 54, 472 53.526, 472 51.107 C 472 49.391, 471.356 47.967, 470.418 47.607 C 468.344 46.811, 468.225 46.827, 467.500 48 M 473.415 48.137 C 473.024 48.771, 473.742 50.051, 475.038 51.029 C 477.236 52.687, 477.258 52.810, 475.432 53.276 C 473.752 53.704, 473.793 53.783, 475.750 53.884 C 478.315 54.016, 478.898 51.282, 476.500 50.362 C 475.675 50.045, 475 49.398, 475 48.924 C 475 48.451, 475.749 48.350, 476.664 48.701 C 477.783 49.131, 478.091 48.957, 477.605 48.170 C 476.683 46.678, 474.328 46.659, 473.415 48.137 M 480.068 48.419 C 478.273 50.581, 479.172 53.450, 481.760 53.820 C 482.992 53.995, 484 53.700, 484 53.163 C 484 52.626, 483.030 52.441, 481.844 52.751 C 480.366 53.138, 479.912 52.951, 480.403 52.158 C 480.796 51.521, 481.799 51, 482.632 51 C 483.508 51, 484.010 50.297, 483.823 49.333 C 483.383 47.061, 481.562 46.618, 480.068 48.419 M 559.544 47.929 C 559.229 48.439, 559.990 49.057, 561.235 49.302 L 563.500 49.746 561.250 50.490 C 558.182 51.504, 558.359 54, 561.500 54 C 563.591 54, 564 53.526, 564 51.107 C 564 49.391, 563.356 47.967, 562.418 47.607 C 560.358 46.816, 560.222 46.832, 559.544 47.929 M 569.544 47.929 C 569.229 48.439, 569.990 49.057, 571.235 49.302 L 573.500 49.746 571.250 50.490 C 568.182 51.504, 568.359 54, 571.500 54 C 573.591 54, 574 53.526, 574 51.107 C 574 49.391, 573.356 47.967, 572.418 47.607 C 570.358 46.816, 570.222 46.832, 569.544 47.929 M 575.415 48.137 C 575.024 48.771, 575.742 50.051, 577.038 51.029 C 579.236 52.687, 579.258 52.810, 577.432 53.276 C 575.752 53.704, 575.793 53.783, 577.750 53.884 C 580.315 54.016, 580.898 51.282, 578.500 50.362 C 577.675 50.045, 577 49.398, 577 48.924 C 577 48.451, 577.749 48.350, 578.664 48.701 C 579.783 49.131, 580.091 48.957, 579.605 48.170 C 578.683 46.678, 576.328 46.659, 575.415 48.137 M 582.200 48.200 C 580.115 50.285, 580.740 52.215, 583.250 51.443 C 586.206 50.535, 586.352 50.359, 585.655 48.543 C 584.944 46.691, 583.821 46.579, 582.200 48.200 M 451 51 C 451 52.111, 451.667 53, 452.500 53 C 453.333 53, 454 52.111, 454 51 C 454 49.889, 453.333 49, 452.500 49 C 451.667 49, 451 49.889, 451 51 M 480.813 49.683 C 481.534 49.972, 482.397 49.936, 482.729 49.604 C 483.061 49.272, 482.471 49.036, 481.417 49.079 C 480.252 49.127, 480.015 49.364, 480.813 49.683 M 553 51 C 553 52.111, 553.667 53, 554.500 53 C 555.333 53, 556 52.111, 556 51 C 556 49.889, 555.333 49, 554.500 49 C 553.667 49, 553 49.889, 553 51 M 582.813 49.683 C 583.534 49.972, 584.397 49.936, 584.729 49.604 C 585.061 49.272, 584.471 49.036, 583.417 49.079 C 582.252 49.127, 582.015 49.364, 582.813 49.683 M 583.500 53 C 581.592 53.820, 581.603 53.863, 583.750 53.930 C 584.987 53.968, 586 53.550, 586 53 C 586 52.450, 585.888 52.032, 585.750 52.070 C 585.612 52.109, 584.600 52.527, 583.500 53 M 26.489 62.703 C 25.114 63.759, 24.886 64.374, 25.750 64.698 C 26.438 64.956, 27 66.254, 27 67.583 C 27 69.065, 27.580 70, 28.500 70 C 29.580 70, 30 68.895, 30 66.059 C 30 61.406, 29.190 60.631, 26.489 62.703 M 32.050 62.440 C 31.393 63.231, 31.001 65.144, 31.178 66.690 C 31.435 68.935, 32.003 69.500, 34 69.500 C 36.112 69.500, 36.550 68.973, 36.824 66.105 C 37.252 61.629, 34.485 59.506, 32.050 62.440 M 39.176 61.870 C 38.379 62.375, 37.981 64.063, 38.176 66.105 C 38.450 68.973, 38.888 69.500, 41 69.500 C 42.997 69.500, 43.565 68.935, 43.822 66.690 C 43.999 65.144, 43.607 63.231, 42.950 62.440 C 41.579 60.788, 41.016 60.703, 39.176 61.870 M 33 66 C 33 67.650, 33.450 69, 34 69 C 34.550 69, 35 67.650, 35 66 C 35 64.350, 34.550 63, 34 63 C 33.450 63, 33 64.350, 33 66 M 40 66.059 C 40 67.844, 40.417 68.861, 41 68.500 C 41.550 68.160, 42 66.784, 42 65.441 C 42 64.098, 41.550 63, 41 63 C 40.450 63, 40 64.377, 40 66.059 M 522.074 64.862 C 520.793 67.255, 522.898 70.362, 525.459 69.859 C 528.261 69.308, 529.654 66.493, 528.070 64.584 C 526.294 62.445, 523.293 62.584, 522.074 64.862 M 31.940 105.572 C 30.747 107.009, 30.859 107.467, 32.782 109.025 C 35.339 111.095, 35.677 112.197, 33.500 111.362 C 32.675 111.045, 32 111.315, 32 111.963 C 32 112.611, 33.011 112.996, 34.250 112.820 C 36.154 112.549, 36.500 111.886, 36.500 108.514 C 36.500 104.072, 34.341 102.679, 31.940 105.572 M 38.421 105.345 C 38.107 106.163, 37.997 108.107, 38.175 109.666 C 38.435 111.936, 38.998 112.500, 41 112.500 C 43.250 112.500, 43.500 112.100, 43.500 108.500 C 43.500 105.111, 43.156 104.451, 41.246 104.180 C 39.938 103.994, 38.752 104.483, 38.421 105.345 M 34.158 107 C 34.158 108.375, 34.385 108.938, 34.662 108.250 C 34.940 107.563, 34.940 106.438, 34.662 105.750 C 34.385 105.063, 34.158 105.625, 34.158 107 M 40.667 105.667 C 39.642 106.692, 39.877 110.806, 41 111.500 C 41.595 111.868, 42 110.677, 42 108.559 C 42 104.904, 41.820 104.514, 40.667 105.667 M 210.529 110.355 C 208.479 111.854, 208.798 114.843, 211.166 116.335 C 212.374 117.095, 213.268 117.022, 214.416 116.070 C 218.049 113.054, 214.325 107.579, 210.529 110.355 M 522.037 145.931 C 521.257 147.388, 521.389 148.246, 522.573 149.431 C 524.545 151.402, 525.455 151.402, 527.429 149.429 C 529.315 147.543, 529.381 146.781, 527.800 145.200 C 525.999 143.399, 523.202 143.754, 522.037 145.931 M 32.930 147.043 C 30.913 148.290, 30.868 153.867, 32.866 154.892 C 35.630 156.309, 37 155.027, 37 151.024 C 37 147.054, 35.417 145.506, 32.930 147.043 M 39.050 147.440 C 38.393 148.231, 38.001 150.144, 38.178 151.690 C 38.435 153.935, 39.003 154.500, 41 154.500 C 42.997 154.500, 43.565 153.935, 43.822 151.690 C 44.128 149.020, 42.630 146, 41 146 C 40.585 146, 39.707 146.648, 39.050 147.440 M 40 151 C 40 152.650, 40.450 154, 41 154 C 41.550 154, 42 152.650, 42 151 C 42 149.350, 41.550 148, 41 148 C 40.450 148, 40 149.350, 40 151 M 365.930 149.584 C 364.978 150.732, 364.905 151.626, 365.665 152.834 C 367.157 155.202, 370.146 155.521, 371.645 153.471 C 374.421 149.675, 368.946 145.951, 365.930 149.584 M 54.200 170.200 C 51.214 173.186, 54.526 177.859, 58.224 175.880 C 61.172 174.302, 59.843 169, 56.500 169 C 55.895 169, 54.860 169.540, 54.200 170.200 M 32.765 189.708 C 34.010 189.947, 34.762 190.575, 34.436 191.104 C 34.109 191.633, 33.459 193.400, 32.991 195.033 C 32.330 197.336, 32.460 198, 33.570 198 C 34.356 198, 35 197.303, 35 196.450 C 35 195.598, 35.687 193.573, 36.526 191.950 L 38.051 189 34.276 189.136 C 31.927 189.221, 31.356 189.437, 32.765 189.708 M 38.421 190.345 C 38.107 191.163, 37.997 193.107, 38.175 194.666 C 38.435 196.936, 38.998 197.500, 41 197.500 C 43.250 197.500, 43.500 197.100, 43.500 193.500 C 43.500 190.111, 43.156 189.451, 41.246 189.180 C 39.938 188.994, 38.752 189.483, 38.421 190.345 M 40.667 190.667 C 39.642 191.692, 39.877 195.806, 41 196.500 C 41.595 196.868, 42 195.677, 42 193.559 C 42 189.904, 41.820 189.514, 40.667 190.667 M 991.750 208.080 C 989.372 209.465, 989.542 212.685, 992.064 214.034 C 995.753 216.008, 998.819 211.219, 995.800 208.200 C 994.367 206.767, 994.022 206.757, 991.750 208.080 M 54.529 212.355 C 52.479 213.854, 52.798 216.843, 55.166 218.335 C 56.374 219.095, 57.268 219.022, 58.416 218.070 C 62.049 215.054, 58.325 209.579, 54.529 212.355 M 31.630 234.250 C 30.778 237.430, 30.821 237.679, 32.529 239.386 C 34.577 241.434, 37 240.354, 37 237.393 C 37 235.644, 36.446 235, 34.941 235 C 33.735 235, 33.156 234.557, 33.542 233.932 C 33.905 233.344, 34.832 233.105, 35.601 233.400 C 36.371 233.696, 37 233.501, 37 232.969 C 37 232.436, 35.927 232, 34.617 232 C 32.990 232, 32.042 232.715, 31.630 234.250 M 38.709 232.624 C 37.442 233.891, 37.960 238.722, 39.500 240 C 41.784 241.895, 44.177 239.439, 43.801 235.585 C 43.585 233.366, 42.927 232.418, 41.459 232.208 C 40.336 232.047, 39.099 232.235, 38.709 232.624 M 40 236 C 40 237.650, 40.450 239, 41 239 C 41.550 239, 42 237.650, 42 236 C 42 234.350, 41.550 233, 41 233 C 40.450 233, 40 234.350, 40 236 M 34.079 237.583 C 34.127 238.748, 34.364 238.985, 34.683 238.188 C 34.972 237.466, 34.936 236.603, 34.604 236.271 C 34.272 235.939, 34.036 236.529, 34.079 237.583 M 210.040 238.452 C 207.958 240.961, 209.195 243.500, 212.500 243.500 C 214.566 243.500, 215.578 242.952, 215.819 241.702 C 216.216 239.640, 214.352 237, 212.500 237 C 211.810 237, 210.703 237.653, 210.040 238.452 M 12.250 242.718 C 11.563 242.965, 11 243.804, 11 244.583 C 11 245.363, 10.502 246, 9.893 246 C 9.284 246, 9.045 245.325, 9.362 244.500 C 9.678 243.675, 9.501 243, 8.969 243 C 8.436 243, 8 243.900, 8 245 C 8 246.333, 8.667 247, 10 247 C 11.111 247, 12 246.333, 12 245.500 C 12 244.675, 12.498 244, 13.107 244 C 13.716 244, 13.955 244.675, 13.638 245.500 C 13.322 246.325, 13.499 247, 14.031 247 C 15.165 247, 15.352 243.317, 14.250 242.694 C 13.838 242.461, 12.938 242.472, 12.250 242.718 M 9.762 249.707 C 11.006 249.946, 12.806 249.937, 13.762 249.687 C 14.718 249.437, 13.700 249.241, 11.500 249.252 C 9.300 249.263, 8.518 249.468, 9.762 249.707 M 678.384 251.442 C 677.319 254.217, 678.456 256.500, 680.905 256.500 C 684.059 256.500, 685.846 253.724, 684.070 251.584 C 682.428 249.606, 679.120 249.523, 678.384 251.442 M 8.726 253.054 C 9.694 254.079, 9.694 254.668, 8.726 255.853 C 7.674 257.142, 7.779 257.200, 9.474 256.262 C 10.890 255.478, 12.021 255.475, 13.474 256.249 C 15.290 257.216, 15.358 257.155, 14.128 255.664 C 13.235 254.582, 13.148 254, 13.878 254 C 14.495 254, 15 253.495, 15 252.878 C 15 252.080, 14.585 252.100, 13.564 252.947 C 12.452 253.869, 11.605 253.869, 9.814 252.947 C 7.923 251.973, 7.724 251.992, 8.726 253.054 M 835.040 255.452 C 832.958 257.961, 834.195 260.500, 837.500 260.500 C 839.566 260.500, 840.578 259.952, 840.819 258.702 C 841.216 256.640, 839.352 254, 837.500 254 C 836.810 254, 835.703 254.653, 835.040 255.452 M 8.336 259.567 C 8.005 260.429, 8.310 261.667, 9.014 262.317 C 10.025 263.251, 10.167 263.138, 9.691 261.782 C 9.359 260.837, 9.485 259.818, 9.972 259.518 C 10.458 259.217, 11.152 259.902, 11.513 261.041 C 12.332 263.620, 14.392 263.079, 14.820 260.172 C 15.089 258.341, 14.652 258, 12.038 258 C 10.145 258, 8.703 258.610, 8.336 259.567 M 12.638 260.500 C 12.955 261.325, 13.391 262, 13.607 262 C 13.823 262, 14 261.325, 14 260.500 C 14 259.675, 13.564 259, 13.031 259 C 12.499 259, 12.322 259.675, 12.638 260.500 M 11.079 266.583 C 11.127 267.748, 11.364 267.985, 11.683 267.188 C 11.972 266.466, 11.936 265.603, 11.604 265.271 C 11.272 264.939, 11.036 265.529, 11.079 266.583 M 10 270.500 C 11.821 271.541, 12.041 271.939, 10.809 271.965 C 9.879 271.984, 8.861 272.415, 8.548 272.922 C 8.211 273.467, 9.422 273.446, 11.502 272.872 C 13.441 272.336, 15.471 272.173, 16.013 272.508 C 16.556 272.844, 17 272.713, 17 272.217 C 17 271.722, 15.260 270.795, 13.134 270.158 C 8.025 268.628, 6.933 268.747, 10 270.500 M 32 276.607 C 32 278.513, 32.403 279.059, 33.500 278.638 C 34.515 278.249, 35 278.689, 35 280 C 35 281.311, 34.515 281.751, 33.500 281.362 C 32.675 281.045, 32 281.315, 32 281.963 C 32 282.611, 33.011 282.996, 34.250 282.820 C 36.966 282.434, 37.969 278.309, 35.570 277.389 C 33.487 276.589, 33.576 275.257, 35.750 274.689 C 36.827 274.408, 36.442 274.187, 34.750 274.116 C 32.424 274.018, 32 274.402, 32 276.607 M 38.421 275.345 C 38.107 276.163, 37.997 278.107, 38.175 279.666 C 38.435 281.936, 38.998 282.500, 41 282.500 C 43.250 282.500, 43.500 282.100, 43.500 278.500 C 43.500 275.111, 43.156 274.451, 41.246 274.180 C 39.938 273.994, 38.752 274.483, 38.421 275.345 M 40.667 275.667 C 39.642 276.692, 39.877 280.806, 41 281.500 C 41.595 281.868, 42 280.677, 42 278.559 C 42 274.904, 41.820 274.514, 40.667 275.667 M 32.724 319.890 C 31.059 322.709, 31.075 322.819, 33.394 324.338 C 36.363 326.284, 37 325.665, 37 320.833 C 37 316.183, 35.154 315.776, 32.724 319.890 M 38.709 317.624 C 37.490 318.843, 37.934 323.701, 39.373 324.895 C 41.905 326.996, 44.135 325.097, 43.803 321.123 C 43.572 318.361, 43.015 317.431, 41.459 317.208 C 40.336 317.047, 39.099 317.235, 38.709 317.624 M 40 321 C 40 322.650, 40.450 324, 41 324 C 41.550 324, 42 322.650, 42 321 C 42 319.350, 41.550 318, 41 318 C 40.450 318, 40 319.350, 40 321 M 990.930 319.584 C 989.151 321.728, 990.943 324.500, 994.109 324.500 C 995.868 324.500, 996.589 323.869, 996.837 322.113 C 997.372 318.335, 993.384 316.628, 990.930 319.584 M 32.429 360.115 C 31.920 360.938, 32.166 361.150, 33.177 360.762 C 34.322 360.323, 34.713 360.992, 34.809 363.549 C 34.906 366.125, 34.592 366.781, 33.468 366.349 C 32.661 366.040, 32 366.315, 32 366.963 C 32 367.611, 33.011 367.996, 34.250 367.820 C 36.154 367.549, 36.500 366.886, 36.500 363.513 C 36.500 360.596, 36.055 359.440, 34.843 359.207 C 33.932 359.032, 32.846 359.441, 32.429 360.115 M 38.447 361.356 C 37.416 365.461, 38.268 367.500, 41.014 367.500 C 43.248 367.500, 43.500 367.094, 43.500 363.500 C 43.500 360.132, 43.150 359.450, 41.285 359.185 C 39.630 358.950, 38.913 359.498, 38.447 361.356 M 40 363.441 C 40 364.784, 40.450 366.160, 41 366.500 C 41.583 366.861, 42 365.844, 42 364.059 C 42 362.377, 41.550 361, 41 361 C 40.450 361, 40 362.098, 40 363.441 M 32 402.969 C 32 403.501, 32.675 403.678, 33.500 403.362 C 34.418 403.009, 35 403.362, 35 404.271 C 35 405.087, 34.325 406.315, 33.500 407 C 31.052 409.031, 31.690 411.013, 34.750 410.884 C 36.442 410.813, 36.827 410.592, 35.750 410.311 C 33.604 409.750, 33.479 408.414, 35.500 407.638 C 36.325 407.322, 37 405.924, 37 404.531 C 37 402.498, 36.508 402, 34.500 402 C 33.125 402, 32 402.436, 32 402.969 M 38.709 402.624 C 37.490 403.843, 37.934 408.701, 39.373 409.895 C 41.905 411.996, 44.135 410.097, 43.803 406.123 C 43.572 403.361, 43.015 402.431, 41.459 402.208 C 40.336 402.047, 39.099 402.235, 38.709 402.624 M 40 406 C 40 407.650, 40.450 409, 41 409 C 41.550 409, 42 407.650, 42 406 C 42 404.350, 41.550 403, 41 403 C 40.450 403, 40 404.350, 40 406 M 835.200 442.200 C 832.214 445.186, 835.526 449.859, 839.224 447.880 C 842.172 446.302, 840.843 441, 837.500 441 C 836.895 441, 835.860 441.540, 835.200 442.200 M 33.489 445.703 C 32.114 446.759, 31.886 447.374, 32.750 447.698 C 33.438 447.956, 34 449.254, 34 450.583 C 34 452.065, 34.580 453, 35.500 453 C 36.580 453, 37 451.895, 37 449.059 C 37 444.406, 36.190 443.631, 33.489 445.703 M 39.086 445.397 C 38.409 446.212, 38.001 448.144, 38.178 449.690 C 38.435 451.935, 39.003 452.500, 41 452.500 C 43.249 452.500, 43.500 452.099, 43.500 448.514 C 43.500 444.177, 41.355 442.663, 39.086 445.397 M 40 449 C 40 450.650, 40.450 452, 41 452 C 41.550 452, 42 450.650, 42 449 C 42 447.350, 41.550 446, 41 446 C 40.450 446, 40 447.350, 40 449 M 55.489 463.703 C 54.114 464.759, 53.886 465.374, 54.750 465.698 C 55.438 465.956, 56 467.254, 56 468.583 C 56 470.065, 56.580 471, 57.500 471 C 58.580 471, 59 469.895, 59 467.059 C 59 462.406, 58.190 461.631, 55.489 463.703 M 210.544 462.929 C 210.229 463.439, 210.922 464.002, 212.085 464.179 L 214.200 464.500 212.100 467.158 C 209.377 470.604, 209.447 471.014, 212.750 470.930 C 215.163 470.868, 215.255 470.759, 213.500 470.037 C 211.724 469.307, 211.688 469.138, 213.173 468.530 C 214.093 468.153, 215.113 467.148, 215.440 466.296 C 216.528 463.461, 212.098 460.414, 210.544 462.929 M 367 463 C 365.810 463.769, 366.017 463.976, 368 464 C 370.041 464.025, 370.225 464.225, 369 465.091 C 367.871 465.890, 367.809 466.278, 368.750 466.659 C 370.942 467.549, 370.239 470.211, 368 469.500 C 366.803 469.120, 366 469.320, 366 469.999 C 366 470.646, 367.181 470.997, 368.750 470.816 C 371.152 470.540, 371.507 470.058, 371.558 467 C 371.632 462.519, 369.983 461.072, 367 463 M 524.638 463.500 C 524.322 464.325, 524.200 465.563, 524.367 466.250 C 524.535 466.938, 524.483 467.160, 524.251 466.744 C 523.720 465.792, 522 466.798, 522 468.059 C 522 468.577, 522.638 469, 523.417 469 C 524.196 469, 525.040 469.563, 525.292 470.250 C 526.241 472.839, 527.730 469.434, 527.260 465.750 C 526.764 461.865, 525.637 460.897, 524.638 463.500 M 678.755 464.500 C 678.384 466.442, 678.692 467, 680.139 467 C 681.182 467, 682 467.707, 682 468.607 C 682 469.625, 681.450 470.003, 680.500 469.638 C 679.675 469.322, 679 469.530, 679 470.101 C 679 470.672, 680.013 470.995, 681.250 470.820 C 683.966 470.434, 684.969 466.309, 682.570 465.389 C 680.487 464.589, 680.576 463.257, 682.750 462.689 C 683.876 462.395, 683.561 462.191, 681.867 462.116 C 679.809 462.025, 679.129 462.546, 678.755 464.500 M 836.385 462.765 C 834.821 463.796, 833.835 467.406, 834.584 469.359 C 834.931 470.262, 836.291 471, 837.607 471 C 839.480 471, 840 470.467, 840 468.550 C 840 467.202, 839.212 465.641, 838.250 465.080 C 836.598 464.118, 836.602 464.059, 838.309 464.030 C 839.304 464.014, 839.840 463.550, 839.500 463 C 838.772 461.822, 837.915 461.757, 836.385 462.765 M 992.323 462.703 C 993.578 463.028, 993.928 463.694, 993.445 464.837 C 992.040 468.164, 991.782 471, 992.883 471 C 993.498 471, 994.014 470.212, 994.032 469.250 C 994.049 468.288, 994.710 466.646, 995.500 465.603 C 997.351 463.157, 996.565 461.971, 993.191 462.116 C 991.366 462.195, 991.087 462.384, 992.323 462.703 M 837.079 468.583 C 837.127 469.748, 837.364 469.985, 837.683 469.188 C 837.972 468.466, 837.936 467.603, 837.604 467.271 C 837.272 466.939, 837.036 467.529, 837.079 468.583 M 509.880 487.776 C 510.495 488.925, 510.460 490.248, 509.781 491.526 C 508.925 493.137, 508.973 493.274, 510.042 492.274 C 511.077 491.306, 511.665 491.306, 512.840 492.274 C 514.115 493.324, 514.173 493.210, 513.249 491.474 C 512.475 490.021, 512.478 488.890, 513.262 487.474 C 514.241 485.704, 514.181 485.642, 512.677 486.872 C 511.586 487.766, 511 487.853, 511 487.122 C 511 486.505, 510.534 486, 509.965 486 C 509.283 486, 509.254 486.606, 509.880 487.776 M 520.558 486.907 C 520.249 487.405, 520.898 487.578, 521.999 487.290 C 523.099 487.002, 524 487.217, 524 487.767 C 524 488.317, 523.053 489.014, 521.895 489.317 C 519.240 490.012, 519.937 492.462, 522.833 492.613 C 524.649 492.709, 525 492.182, 525 489.363 C 525 486.701, 524.596 486, 523.059 486 C 521.991 486, 520.866 486.408, 520.558 486.907 M 526.426 489.566 C 526.372 492.037, 526.667 492.691, 527.518 491.985 C 528.159 491.453, 528.868 491.199, 529.092 491.421 C 529.316 491.643, 529.546 490.402, 529.602 488.663 C 529.658 486.923, 529.502 486.081, 529.255 486.792 C 528.959 487.642, 528.411 487.758, 527.653 487.131 C 526.824 486.447, 526.479 487.131, 526.426 489.566 M 533.252 489.500 C 533.263 491.700, 533.468 492.482, 533.707 491.238 C 533.946 489.994, 533.937 488.194, 533.687 487.238 C 533.437 486.282, 533.241 487.300, 533.252 489.500 M 535.520 486.967 C 535.191 487.499, 535.840 488.508, 536.961 489.208 C 539.320 490.681, 539.721 492.491, 537.500 491.638 C 536.675 491.322, 536 491.499, 536 492.031 C 536 492.564, 536.900 493, 538 493 C 540.494 493, 540.639 490.247, 538.250 488.279 C 536.583 486.905, 536.583 486.863, 538.250 487.387 C 539.212 487.690, 540 487.501, 540 486.969 C 540 485.709, 536.298 485.708, 535.520 486.967 M 515.813 489.683 C 516.534 489.972, 517.397 489.936, 517.729 489.604 C 518.061 489.272, 517.471 489.036, 516.417 489.079 C 515.252 489.127, 515.015 489.364, 515.813 489.683 M 521.510 491.016 C 521.856 491.575, 522.557 491.774, 523.069 491.457 C 524.456 490.600, 524.198 490, 522.441 490 C 521.584 490, 521.165 490.457, 521.510 491.016" stroke="none" fill="black" fill-rule="evenodd"/>
	<path fill-opacity="0.390" d="M 458 17 C 458 19.200, 458.450 21, 459 21 C 459.550 21, 460 19.200, 460 17 C 460 14.800, 459.550 13, 459 13 C 458.450 13, 458 14.800, 458 17 M 498.272 17 C 498.272 19.475, 498.467 20.488, 498.706 19.250 C 498.944 18.012, 498.944 15.988, 498.706 14.750 C 498.467 13.512, 498.272 14.525, 498.272 17 M 511.667 13.667 C 509.423 15.910, 512.408 21.802, 515.216 20.673 C 516.050 20.339, 515.911 20.130, 514.817 20.079 C 512.876 19.988, 511.665 17.038, 512.584 14.641 C 513.236 12.942, 512.826 12.507, 511.667 13.667 M 520.015 16.750 C 520.007 19.087, 520.174 21, 520.387 21 C 521.222 21, 521.599 14.972, 520.839 13.773 C 520.354 13.010, 520.024 14.201, 520.015 16.750 M 538 16.441 C 538 18.334, 538.450 20.160, 539 20.500 C 539.604 20.873, 540 19.510, 540 17.059 C 540 14.827, 539.550 13, 539 13 C 538.450 13, 538 14.548, 538 16.441 M 467.681 16.877 C 467.875 17.634, 467.522 18.871, 466.895 19.627 C 466.160 20.512, 466.124 21, 466.794 21 C 467.366 21, 468.096 20.438, 468.417 19.750 C 468.883 18.750, 469.117 18.750, 469.583 19.750 C 469.904 20.438, 470.595 21, 471.119 21 C 471.701 21, 471.721 20.321, 471.170 19.250 C 470.675 18.288, 470.508 16.825, 470.798 16 C 471.238 14.748, 471.067 14.713, 469.760 15.792 C 468.899 16.502, 467.999 16.727, 467.761 16.292 C 467.523 15.856, 467.487 16.120, 467.681 16.877 M 477.232 18 C 477.232 19.925, 477.438 20.712, 477.689 19.750 C 477.941 18.788, 477.941 17.212, 477.689 16.250 C 477.438 15.287, 477.232 16.075, 477.232 18 M 480 18 C 480 19.650, 480.174 21, 480.387 21 C 480.599 21, 480.971 19.650, 481.213 18 C 481.455 16.350, 481.282 15, 480.827 15 C 480.372 15, 480 16.350, 480 18 M 483.787 18 C 484.029 19.650, 484.350 21, 484.500 21 C 484.650 21, 484.971 19.650, 485.213 18 C 485.485 16.146, 485.213 15, 484.500 15 C 483.787 15, 483.515 16.146, 483.787 18 M 487.787 18 C 488.029 19.650, 488.401 21, 488.613 21 C 488.826 21, 489 19.650, 489 18 C 489 16.350, 488.628 15, 488.173 15 C 487.718 15, 487.545 16.350, 487.787 18 M 490 19 C 490 21.200, 490.450 23, 491 23 C 491.550 23, 492 21.200, 492 19 C 492 16.800, 491.550 15, 491 15 C 490.450 15, 490 16.800, 490 19 M 493.798 17.925 C 493.550 19.616, 493.688 21, 494.106 21 C 495.373 21, 496.266 16.866, 495.224 15.824 C 494.591 15.191, 494.091 15.927, 493.798 17.925 M 501.362 16.500 C 500.503 18.737, 501.699 21.004, 503.719 20.970 C 505.366 20.941, 505.373 20.865, 503.810 19.954 C 502.850 19.393, 502.286 18.112, 502.503 16.984 C 502.951 14.656, 502.193 14.334, 501.362 16.500 M 505.079 16.583 C 505.127 17.748, 505.364 17.985, 505.683 17.188 C 505.972 16.466, 505.936 15.603, 505.604 15.271 C 505.272 14.939, 505.036 15.529, 505.079 16.583 M 523.787 18 C 524.029 19.650, 524.401 21, 524.613 21 C 524.826 21, 525 19.650, 525 18 C 525 16.350, 524.628 15, 524.173 15 C 523.718 15, 523.545 16.350, 523.787 18 M 531.232 18 C 531.232 19.925, 531.438 20.712, 531.689 19.750 C 531.941 18.788, 531.941 17.212, 531.689 16.250 C 531.438 15.287, 531.232 16.075, 531.232 18 M 534.232 18 C 534.232 19.925, 534.438 20.712, 534.689 19.750 C 534.941 18.788, 534.941 17.212, 534.689 16.250 C 534.438 15.287, 534.232 16.075, 534.232 18 M 473.446 18.087 C 473.077 18.685, 473.179 19.579, 473.673 20.073 C 474.204 20.604, 474.571 20.160, 474.571 18.986 C 474.571 16.713, 474.386 16.566, 473.446 18.087 M 527.446 18.087 C 527.077 18.685, 527.179 19.579, 527.673 20.073 C 528.204 20.604, 528.571 20.160, 528.571 18.986 C 528.571 16.713, 528.386 16.566, 527.446 18.087 M 403 50.500 L 403 57 423 57 L 443 57 443 50.500 L 443 44 423 44 L 403 44 403 50.500 M 505 50.500 L 505 57 525 57 L 545 57 545 50.500 L 545 44 525 44 L 505 44 505 50.500 M 454.272 50 C 454.272 52.475, 454.467 53.487, 454.706 52.250 C 454.944 51.013, 454.944 48.987, 454.706 47.750 C 454.467 46.513, 454.272 47.525, 454.272 50 M 486.252 49.500 C 486.263 51.700, 486.468 52.482, 486.707 51.238 C 486.946 49.994, 486.937 48.194, 486.687 47.238 C 486.437 46.282, 486.241 47.300, 486.252 49.500 M 556.272 50 C 556.272 52.475, 556.467 53.487, 556.706 52.250 C 556.944 51.013, 556.944 48.987, 556.706 47.750 C 556.467 46.513, 556.272 47.525, 556.272 50 M 588.252 49.500 C 588.263 51.700, 588.468 52.482, 588.707 51.238 C 588.946 49.994, 588.937 48.194, 588.687 47.238 C 588.437 46.282, 588.241 47.300, 588.252 49.500 M 27 63 C 26.106 63.578, 25.980 63.976, 26.687 63.985 C 27.339 63.993, 28.055 65.463, 28.277 67.250 C 28.626 70.067, 28.701 69.934, 28.840 66.250 C 28.928 63.913, 28.887 62.007, 28.750 62.015 C 28.613 62.024, 27.825 62.467, 27 63 M 32.027 63.500 C 31.722 65.868, 32.030 69.329, 32.598 69.917 C 33.438 70.787, 33.543 69.364, 32.924 65.500 C 32.572 63.300, 32.168 62.400, 32.027 63.500 M 35.135 66 C 35.135 69.951, 35.268 70.226, 36.220 68.250 C 37.001 66.632, 37.001 65.368, 36.220 63.750 C 35.268 61.774, 35.135 62.049, 35.135 66 M 38.667 62.667 C 37.745 63.589, 37.827 68.775, 38.773 69.360 C 39.198 69.622, 39.545 68.074, 39.545 65.919 C 39.545 63.763, 39.498 62, 39.439 62 C 39.381 62, 39.033 62.300, 38.667 62.667 M 41.951 65.724 C 41.677 68.047, 41.833 69.567, 42.299 69.101 C 42.765 68.635, 42.989 66.735, 42.798 64.877 C 42.459 61.583, 42.438 61.604, 41.951 65.724 M 522.709 63.624 C 521.432 64.901, 521.966 68.773, 523.500 69.362 C 526.172 70.387, 528.128 68.915, 527.804 66.122 C 527.505 63.547, 524.339 61.995, 522.709 63.624 M 32.374 105.467 C 32.065 106.274, 32.043 107.511, 32.327 108.217 C 32.610 108.923, 32.878 108.450, 32.921 107.167 C 32.969 105.764, 33.499 105.002, 34.250 105.255 C 34.938 105.488, 35.477 107.072, 35.448 108.775 C 35.419 110.479, 35.757 111.650, 36.198 111.378 C 37.661 110.473, 37.058 105.236, 35.418 104.607 C 33.206 103.758, 33.009 103.814, 32.374 105.467 M 39.117 106.213 C 38.667 107.430, 38.569 109.342, 38.899 110.463 C 39.336 111.944, 39.585 111.476, 39.810 108.750 C 40.205 103.980, 42 103.824, 42 108.559 C 42 110.677, 42.405 111.868, 43 111.500 C 44.382 110.646, 44.256 106.656, 42.800 105.200 C 41.044 103.444, 40.039 103.721, 39.117 106.213 M 210.238 111.162 C 208.618 112.782, 208.676 113.533, 210.569 115.427 C 212.726 117.583, 216.246 115.740, 215.811 112.682 C 215.455 110.182, 212.127 109.273, 210.238 111.162 M 522.389 145.430 C 521.393 148.025, 522.788 150.169, 525.246 149.820 C 526.898 149.585, 527.500 148.833, 527.500 147 C 527.500 145.167, 526.898 144.415, 525.246 144.180 C 523.893 143.988, 522.750 144.488, 522.389 145.430 M 32.334 150.444 C 32.645 155.301, 33.538 155.666, 33.538 150.936 C 33.538 148.771, 33.218 147, 32.826 147 C 32.434 147, 32.213 148.550, 32.334 150.444 M 35.462 150.980 C 35.462 153.099, 35.755 154.651, 36.114 154.429 C 36.857 153.971, 36.735 148.402, 35.966 147.633 C 35.689 147.355, 35.462 148.862, 35.462 150.980 M 39.272 151 C 39.272 153.475, 39.467 154.488, 39.706 153.250 C 39.944 152.012, 39.944 149.988, 39.706 148.750 C 39.467 147.512, 39.272 148.525, 39.272 151 M 42.135 151 C 42.135 154.951, 42.268 155.226, 43.220 153.250 C 44.001 151.632, 44.001 150.368, 43.220 148.750 C 42.268 146.774, 42.135 147.049, 42.135 151 M 367.250 148.667 C 365.411 149.402, 365.728 153.682, 367.678 154.430 C 370.127 155.370, 372.769 152.442, 371.412 150.291 C 370.215 148.394, 369.059 147.943, 367.250 148.667 M 54.516 170.365 C 52.336 171.959, 53.306 176, 55.867 176 C 57.899 176, 60 174.137, 60 172.335 C 60 170.169, 56.502 168.912, 54.516 170.365 M 33.661 189.694 C 35.672 190.087, 35.724 190.302, 34.417 192.808 C 33.644 194.289, 33.019 196.175, 33.028 197 C 33.037 197.825, 33.934 196.538, 35.022 194.141 C 36.110 191.743, 37 189.606, 37 189.391 C 37 189.176, 35.763 189.061, 34.250 189.136 C 32.030 189.246, 31.916 189.354, 33.661 189.694 M 39.117 191.213 C 37.563 195.414, 39.829 199.217, 42.544 196.964 C 44.308 195.499, 44.446 191.846, 42.800 190.200 C 41.044 188.444, 40.039 188.721, 39.117 191.213 M 40 193.500 C 40 195.425, 40.450 197, 41 197 C 41.550 197, 42 195.425, 42 193.500 C 42 191.575, 41.550 190, 41 190 C 40.450 190, 40 191.575, 40 193.500 M 990.659 209.446 C 989.614 212.168, 991.063 214.130, 993.878 213.804 C 995.927 213.566, 996.500 212.954, 996.500 211 C 996.500 209.046, 995.927 208.434, 993.878 208.196 C 992.217 208.003, 991.037 208.461, 990.659 209.446 M 54.200 213.200 C 52.449 214.951, 52.730 216.785, 54.931 217.963 C 56.388 218.743, 57.246 218.611, 58.431 217.427 C 59.294 216.563, 60 215.529, 60 215.129 C 60 214.020, 57.741 212, 56.500 212 C 55.895 212, 54.860 212.540, 54.200 213.200 M 32.667 232.667 C 31.756 233.577, 31.821 238.771, 32.750 239.345 C 33.163 239.600, 33.500 238.051, 33.500 235.904 C 33.500 233.757, 33.462 232, 33.417 232 C 33.371 232, 33.033 232.300, 32.667 232.667 M 39.272 236 C 39.272 238.475, 39.467 239.488, 39.706 238.250 C 39.944 237.012, 39.944 234.988, 39.706 233.750 C 39.467 232.512, 39.272 233.525, 39.272 236 M 42.135 236 C 42.135 239.951, 42.268 240.226, 43.220 238.250 C 44.001 236.632, 44.001 235.368, 43.220 233.750 C 42.268 231.774, 42.135 232.049, 42.135 236 M 35.500 237.500 C 35.500 238.770, 35.837 239.600, 36.250 239.345 C 36.663 239.091, 37 238.260, 37 237.500 C 37 236.740, 36.663 235.909, 36.250 235.655 C 35.837 235.400, 35.500 236.230, 35.500 237.500 M 209.696 239.349 C 209.389 240.150, 209.755 241.637, 210.510 242.653 C 211.603 244.123, 212.252 244.274, 213.691 243.391 C 216.482 241.680, 215.993 238.557, 212.878 238.196 C 211.280 238.011, 210.037 238.461, 209.696 239.349 M 10.211 245.601 C 9.501 246.370, 9.362 247, 9.902 247 C 10.940 247, 12.443 245.098, 11.850 244.534 C 11.658 244.351, 10.920 244.831, 10.211 245.601 M 678.930 251.584 C 677.274 253.579, 678.866 256.500, 681.609 256.500 C 685.081 256.500, 684.354 250.100, 680.872 250.015 C 680.527 250.007, 679.653 250.713, 678.930 251.584 M 834.357 256.513 C 833.694 258.240, 835.627 261, 837.500 261 C 839.415 261, 841.111 258.452, 840.410 256.627 C 839.623 254.576, 835.132 254.492, 834.357 256.513 M 12.768 271.168 C 13.350 271.750, 14.415 272.028, 15.137 271.788 C 15.886 271.538, 15.432 271.085, 14.080 270.731 C 12.417 270.296, 12.026 270.426, 12.768 271.168 M 32.667 274.667 C 31.313 276.020, 31.968 278.949, 33.494 278.364 C 34.450 277.997, 35.326 278.638, 35.930 280.145 C 36.814 282.352, 36.877 282.368, 36.937 280.403 C 36.974 279.165, 36.078 277.876, 34.750 277.256 L 32.500 276.207 35 275.167 C 37.244 274.233, 37.286 274.120, 35.417 274.063 C 34.271 274.029, 33.033 274.300, 32.667 274.667 M 39.050 276.500 C 38.357 281.333, 40.030 284.050, 42.458 282.035 C 44.188 280.599, 44.533 276.447, 43 275.500 C 42.405 275.132, 42 276.323, 42 278.441 C 42 283.166, 40.227 283.017, 39.728 278.250 C 39.513 276.188, 39.207 275.400, 39.050 276.500 M 34.752 317.750 C 34.551 318.163, 34.691 320.075, 35.062 322 L 35.737 325.500 35.868 321.250 C 35.992 317.261, 35.596 316.019, 34.752 317.750 M 39 321 C 39 323.200, 39.178 325, 39.395 325 C 39.612 325, 39.962 323.200, 40.171 321 C 40.381 318.800, 40.203 317, 39.776 317 C 39.349 317, 39 318.800, 39 321 M 42.135 321 C 42.135 324.951, 42.268 325.226, 43.220 323.250 C 44.001 321.632, 44.001 320.368, 43.220 318.750 C 42.268 316.774, 42.135 317.049, 42.135 321 M 991.571 319.571 C 990.388 320.754, 990.257 321.612, 991.037 323.069 C 992.215 325.270, 994.049 325.551, 995.800 323.800 C 997.551 322.049, 997.270 320.215, 995.069 319.037 C 993.612 318.257, 992.754 318.388, 991.571 319.571 M 35.460 361.288 C 34.734 362.134, 34.801 363.254, 35.683 365 C 36.913 367.432, 36.943 367.399, 36.812 363.750 C 36.737 361.688, 36.636 360.017, 36.588 360.038 C 36.540 360.059, 36.032 360.621, 35.460 361.288 M 39.050 361.500 C 38.357 366.333, 40.030 369.050, 42.458 367.035 C 44.188 365.599, 44.533 361.447, 43 360.500 C 42.405 360.132, 42 361.323, 42 363.441 C 42 368.166, 40.227 368.017, 39.728 363.250 C 39.513 361.188, 39.207 360.400, 39.050 361.500 M 35.443 402.909 C 35.857 403.578, 35.545 404.885, 34.750 405.813 C 31.960 409.068, 31.704 410.476, 34.339 408.076 C 37.191 405.478, 37.702 403.552, 35.845 402.405 C 35.109 401.949, 34.963 402.132, 35.443 402.909 M 39.117 404.213 C 38.413 406.116, 38.678 410, 39.512 410 C 39.665 410, 39.962 408.200, 40.171 406 C 40.602 401.483, 40.310 400.988, 39.117 404.213 M 42.135 406 C 42.135 409.951, 42.268 410.226, 43.220 408.250 C 44.001 406.632, 44.001 405.368, 43.220 403.750 C 42.268 401.774, 42.135 402.049, 42.135 406 M 834.362 443.500 C 833.417 445.962, 834.776 448, 837.362 448 C 838.695 448, 840.045 447.325, 840.362 446.500 C 841.306 444.038, 839.947 442, 837.362 442 C 836.028 442, 834.678 442.675, 834.362 443.500 M 33.500 446 C 33.160 446.550, 33.330 447, 33.878 447 C 34.425 447, 35.055 448.462, 35.277 450.250 C 35.626 453.067, 35.701 452.934, 35.840 449.250 C 35.990 445.261, 34.896 443.741, 33.500 446 M 39.050 446.500 C 38.357 451.333, 40.030 454.050, 42.458 452.035 C 44.188 450.599, 44.533 446.447, 43 445.500 C 42.405 445.132, 42 446.323, 42 448.441 C 42 453.166, 40.227 453.017, 39.728 448.250 C 39.513 446.188, 39.207 445.400, 39.050 446.500 M 56 464 C 55.106 464.578, 54.980 464.976, 55.687 464.985 C 56.339 464.993, 57.055 466.462, 57.277 468.250 C 57.626 471.067, 57.701 470.934, 57.840 467.250 C 57.928 464.913, 57.888 463.007, 57.750 463.015 C 57.612 463.024, 56.825 463.467, 56 464 M 213.746 464.500 C 213.376 465.600, 212.302 467.625, 211.360 469 L 209.646 471.500 212.421 468.879 C 214.077 467.315, 215.040 465.501, 214.808 464.379 C 214.440 462.599, 214.384 462.606, 213.746 464.500 M 369.923 463.750 C 369.502 467.851, 369.630 470.729, 370.218 470.365 C 370.911 469.937, 371.024 463, 370.338 463 C 370.152 463, 369.965 463.337, 369.923 463.750 M 525 467 C 525 469.200, 525.450 471, 526 471 C 526.550 471, 527 469.200, 527 467 C 527 464.800, 526.550 463, 526 463 C 525.450 463, 525 464.800, 525 467 M 679 465 C 679 466.100, 679.173 467, 679.383 467 C 679.594 467, 680.002 466.100, 680.290 465 C 680.577 463.900, 680.405 463, 679.906 463 C 679.408 463, 679 463.900, 679 465 M 835.667 463.667 C 834.756 464.577, 834.821 469.771, 835.750 470.345 C 836.163 470.600, 836.500 469.051, 836.500 466.904 C 836.500 464.757, 836.462 463, 836.417 463 C 836.371 463, 836.033 463.300, 835.667 463.667 M 993.513 466.314 C 991.373 471.438, 991.707 472.247, 994.036 467.579 C 995.112 465.423, 995.775 463.442, 995.509 463.176 C 995.244 462.910, 994.345 464.323, 993.513 466.314 M 682.356 468.589 C 682.277 469.908, 682.615 470.738, 683.106 470.434 C 684.192 469.763, 684.286 467.295, 683.250 466.655 C 682.837 466.400, 682.435 467.271, 682.356 468.589 M 838.500 468.500 C 838.500 469.770, 838.837 470.600, 839.250 470.345 C 839.663 470.091, 840 469.260, 840 468.500 C 840 467.740, 839.663 466.909, 839.250 466.655 C 838.837 466.400, 838.500 467.230, 838.500 468.500 M 523.474 486.957 C 523.904 487.654, 523.798 488.511, 523.239 488.862 C 522.592 489.268, 522.727 489.969, 523.611 490.789 C 524.770 491.865, 525 491.668, 525 489.598 C 525 488.234, 524.480 486.797, 523.845 486.405 C 523.094 485.940, 522.964 486.133, 523.474 486.957" stroke="none" fill="black" fill-rule="evenodd"/>
</svg>