<svg xmlns="http://www.w3.org/2000/svg" width="1000" height="500" viewBox="0 0 1000 500" version="1.1">
	<rect x="0" y="0" width="100%" height="100%" fill="#ffffff" />
	<path fill-opacity="0.208" d="M 458 17 C 458 21.889, 458.067 22, 461 22 C 462.650 22, 464 21.550, 464 21 C 464 20.450, 463.100 20, 462 20 C 460.900 20, 460 19.550, 460 19 C 460 18.450, 460.900 18, 462 18 C 463.100 18, 464 17.550, 464 17 C 464 16.450, 463.100 16, 462 16 C 460.900 16, 460 15.550, 460 15 C 460 14.450, 460.900 14, 462 14 C 463.100 14, 464 13.550, 464 13 C 464 12.450, 462.650 12, 461 12 C 458.067 12, 458 12.111, 458 17 M 497 16.441 C 497 21.317, 498.301 23.031, 499.908 20.271 C 500.544 19.178, 500.951 19.004, 500.970 19.816 C 500.989 20.657, 501.992 21.018, 503.743 20.816 C 505.877 20.570, 506.487 19.970, 506.493 18.112 C 506.497 16.799, 505.686 15.224, 504.691 14.612 C 503.242 13.721, 502.597 13.885, 501.441 15.441 C 500.062 17.298, 500 17.266, 500 14.691 C 500 12.966, 499.462 12, 498.500 12 C 497.392 12, 497 13.160, 497 16.441 M 511.029 14.425 C 509.218 19.187, 513.016 23.272, 516.612 20.431 C 518.412 19.008, 518.384 18.952, 516 19.219 C 513.917 19.453, 513.446 19.028, 513.176 16.675 C 512.911 14.358, 513.198 13.908, 514.773 14.175 C 515.829 14.354, 516.776 14.050, 516.878 13.500 C 516.979 12.950, 515.923 12.358, 514.532 12.184 C 512.587 11.940, 511.776 12.459, 511.029 14.425 M 519.195 16.750 C 519.538 22.089, 521.148 23.052, 522.122 18.500 C 522.758 15.527, 522.764 15.524, 522.882 18.191 C 523.007 21.032, 524.462 22.679, 525.444 21.090 C 525.765 20.572, 527.258 20.458, 528.763 20.838 C 533.946 22.146, 535.478 21.693, 535.816 18.750 C 536.212 15.314, 538 15.109, 538 18.500 C 538 19.875, 538.563 21, 539.250 21 C 540.021 21, 540.449 19.753, 540.368 17.750 C 540.118 11.601, 540.134 11.644, 538.532 12.974 C 537.724 13.644, 534.799 14.175, 532.032 14.153 C 527.420 14.118, 525.302 15.267, 528.199 16.233 C 528.963 16.488, 528.800 16.863, 527.751 17.265 C 526.646 17.689, 525.899 17.256, 525.484 15.949 C 525.144 14.877, 524.221 14, 523.433 14 C 522.645 14, 522 13.550, 522 13 C 522 12.450, 521.300 12, 520.445 12 C 519.214 12, 518.954 12.989, 519.195 16.750 M 466.030 15.536 C 466.634 16.263, 466.782 18.028, 466.377 19.654 C 465.737 22.225, 465.829 22.367, 467.334 21.128 C 468.670 20.027, 469.297 20.002, 470.500 21 C 471.428 21.770, 472 21.844, 472 21.192 C 472 20.542, 473.052 20.405, 474.750 20.834 C 479.980 22.155, 481.443 21.689, 482.076 18.498 L 482.671 15.500 483.085 18.281 C 483.648 22.054, 485.346 22.178, 486.076 18.500 L 486.671 15.500 487.085 18.500 C 487.322 20.209, 488.038 21.392, 488.750 21.250 C 489.438 21.113, 490 21.675, 490 22.500 C 490 23.325, 490.450 24, 491 24 C 491.550 24, 492 23.377, 492 22.617 C 492 21.856, 492.933 20.989, 494.074 20.691 C 497.170 19.881, 496.397 14.627, 493.113 14.163 C 491.800 13.977, 490.345 14.427, 489.878 15.163 C 489.339 16.014, 489.025 16.080, 489.015 15.344 C 489.005 14.533, 485.420 14.200, 476.987 14.226 C 467.380 14.256, 465.185 14.518, 466.030 15.536 M 471.339 16.560 C 470.515 18.706, 471.206 19.054, 473.281 17.537 C 474.846 16.392, 474.871 16.164, 473.492 15.635 C 472.574 15.283, 471.682 15.666, 471.339 16.560 M 492 17.500 C 492 18.325, 492.450 19, 493 19 C 493.550 19, 494 18.325, 494 17.500 C 494 16.675, 493.550 16, 493 16 C 492.450 16, 492 16.675, 492 17.500 M 316 50.500 L 316 58 337 58 L 358 58 358 50.500 L 358 43 337 43 L 316 43 316 50.500 M 379 49.980 L 379 57 400.046 57 L 421.091 57 420.796 50.250 L 420.500 43.500 399.750 43.230 L 379 42.959 379 49.980 M 441 50.520 L 441 58.040 462.250 57.770 L 483.500 57.500 483.794 50.250 L 484.088 43 462.544 43 L 441 43 441 50.520 M 504 50.500 L 504 58 525 58 L 546 58 546 50.500 L 546 43 525 43 L 504 43 504 50.500 M 566 50.500 L 566 58 587.500 58 L 609 58 609 50.500 L 609 43 587.500 43 L 566 43 566 50.500 M 365.200 46.200 C 363.782 47.618, 363.586 49.374, 364.938 48.538 C 365.454 48.219, 366.054 49.655, 366.270 51.729 C 366.597 54.857, 366.692 54.605, 366.832 50.250 C 367.015 44.540, 366.970 44.430, 365.200 46.200 M 427.701 45.632 C 426.407 46.926, 426.984 47.943, 428.650 47.304 C 430.033 46.774, 430.184 47.130, 429.587 49.510 C 428.952 52.041, 429.049 52.204, 430.485 51.012 C 432.441 49.389, 432.094 45.633, 429.951 45.226 C 429.099 45.064, 428.087 45.246, 427.701 45.632 M 489.667 45.667 C 488.356 46.978, 489.034 47.804, 491 47.290 C 493.172 46.722, 493.787 48.466, 491.750 49.417 C 490.750 49.883, 490.750 50.117, 491.750 50.583 C 493.806 51.543, 493.162 53.186, 491 52.500 C 488.620 51.745, 488.276 53.508, 490.627 54.410 C 492.962 55.306, 494.788 53.390, 494.613 50.226 C 494.372 45.843, 491.831 43.502, 489.667 45.667 M 553.698 47.700 C 551.606 51.644, 551.555 53, 553.500 53 C 554.325 53, 555.014 53.563, 555.030 54.250 C 555.050 55.070, 555.359 54.983, 555.925 54 C 556.401 53.175, 556.476 50.700, 556.093 48.500 L 555.396 44.500 553.698 47.700 M 615 47.969 C 615 50.197, 615.374 50.794, 616.500 50.362 C 617.474 49.988, 618 50.387, 618 51.500 C 618 52.613, 617.474 53.012, 616.500 52.638 C 614.808 51.989, 614.436 53.533, 616.044 54.527 C 617.491 55.422, 620 53.139, 620 50.927 C 620 49.922, 619.212 48.641, 618.250 48.080 C 616.583 47.109, 616.583 47.059, 618.250 47.030 C 619.212 47.014, 620 46.550, 620 46 C 620 45.450, 618.875 45, 617.500 45 C 615.395 45, 615 45.469, 615 47.969 M 678.200 46.200 C 676.481 47.919, 676.720 52.522, 678.608 54.090 C 679.975 55.224, 680.426 55.138, 681.608 53.521 C 683.476 50.966, 683.380 50.397, 680.750 48.434 C 679.231 47.300, 679.069 46.946, 680.250 47.346 C 681.391 47.731, 682 47.426, 682 46.469 C 682 44.695, 679.857 44.543, 678.200 46.200 M 679 51.500 C 679 52.325, 679.450 53, 680 53 C 680.550 53, 681 52.325, 681 51.500 C 681 50.675, 680.550 50, 680 50 C 679.450 50, 679 50.675, 679 51.500 M 427 53.393 C 427 54.440, 427.870 55, 429.500 55 C 430.875 55, 432 54.550, 432 54 C 432 53.450, 431.587 53, 431.082 53 C 430.577 53, 429.452 52.727, 428.582 52.393 C 427.544 51.995, 427 52.338, 427 53.393 M 492 71.500 C 491.221 72.439, 491.151 73, 491.814 73 C 492.397 73, 493.055 74.463, 493.277 76.250 C 493.587 78.748, 493.717 78.401, 493.840 74.750 C 494.015 69.560, 493.851 69.270, 492 71.500 M 497.545 71.857 C 497.201 72.942, 497.217 75.017, 497.581 76.469 C 498.075 78.437, 498.785 79.030, 500.372 78.804 C 502.137 78.552, 502.500 77.819, 502.500 74.500 C 502.500 71.161, 502.143 70.449, 500.336 70.192 C 498.891 69.986, 497.964 70.539, 497.545 71.857 M 504.394 71.416 C 503.218 74.480, 504.450 78.493, 506.664 78.808 C 509.187 79.168, 510.525 76.230, 509.571 72.428 C 508.894 69.731, 505.309 69.030, 504.394 71.416 M 499.667 71.667 C 498.642 72.692, 498.877 76.806, 500 77.500 C 500.595 77.868, 501 76.677, 501 74.559 C 501 70.904, 500.820 70.514, 499.667 71.667 M 506 74.500 C 506 76.657, 506.404 77.869, 507 77.500 C 507.550 77.160, 508 75.810, 508 74.500 C 508 73.190, 507.550 71.840, 507 71.500 C 506.404 71.131, 506 72.343, 506 74.500 M 494 93.381 C 494 94.767, 494.788 96.407, 495.750 97.026 C 497.384 98.076, 497.378 98.113, 495.666 97.575 C 494.467 97.198, 493.977 97.431, 494.250 98.249 C 494.479 98.937, 495.529 99.500, 496.583 99.500 C 498.153 99.500, 498.500 98.775, 498.500 95.500 C 498.500 92.113, 498.155 91.451, 496.250 91.180 C 494.427 90.922, 494 91.340, 494 93.381 M 500.545 92.857 C 500.201 93.942, 500.217 96.017, 500.581 97.469 C 501.075 99.437, 501.785 100.030, 503.372 99.804 C 505.137 99.552, 505.500 98.819, 505.500 95.500 C 505.500 92.161, 505.143 91.449, 503.336 91.192 C 501.891 90.986, 500.964 91.539, 500.545 92.857 M 495.639 92.694 C 494.513 93.820, 494.954 95, 496.500 95 C 497.325 95, 498 94.577, 498 94.059 C 498 92.798, 496.438 91.895, 495.639 92.694 M 502 95 C 502 96.650, 502.450 98, 503 98 C 503.550 98, 504 96.650, 504 95 C 504 93.350, 503.550 92, 503 92 C 502.450 92, 502 93.350, 502 95 M 494.427 112.331 C 494.114 113.144, 494.003 115.315, 494.180 117.155 C 494.426 119.727, 494.962 120.500, 496.500 120.500 C 498.203 120.500, 498.500 119.833, 498.500 116.014 C 498.500 112.533, 498.107 111.452, 496.747 111.190 C 495.783 111.004, 494.739 111.518, 494.427 112.331 M 500.969 113.059 C 499.418 115.956, 500.691 121, 502.972 121 C 505.919 121, 507.240 114.640, 504.800 112.200 C 503.104 110.504, 502.231 110.699, 500.969 113.059 M 495 114 C 495 114.550, 495.675 115, 496.500 115 C 497.325 115, 498 114.550, 498 114 C 498 113.450, 497.325 113, 496.500 113 C 495.675 113, 495 113.450, 495 114 M 502 116 C 502 117.650, 502.450 119, 503 119 C 503.550 119, 504 117.650, 504 116 C 504 114.350, 503.550 113, 503 113 C 502.450 113, 502 114.350, 502 116 M 495 118 C 495 118.550, 495.675 119, 496.500 119 C 497.325 119, 498 118.550, 498 118 C 498 117.450, 497.325 117, 496.500 117 C 495.675 117, 495 117.450, 495 118 M 494 133 C 494 133.550, 494.691 134, 495.535 134 C 496.743 134, 496.850 134.412, 496.035 135.934 C 495.466 136.998, 495.037 138.911, 495.082 140.184 C 495.156 142.291, 495.280 142.229, 496.458 139.500 C 499.336 132.831, 499.349 132, 496.567 132 C 495.155 132, 494 132.450, 494 133 M 501.067 133.874 C 499.640 136.542, 499.723 138.238, 501.392 140.521 C 503.532 143.449, 506.194 140.776, 505.801 136.094 C 505.453 131.961, 502.766 130.700, 501.067 133.874 M 502 137 C 502 138.650, 502.450 140, 503 140 C 503.550 140, 504 138.650, 504 137 C 504 135.350, 503.550 134, 503 134 C 502.450 134, 502 135.350, 502 137 M 499.452 146.881 C 499.203 147.130, 499 148.757, 499 150.496 C 499 153.133, 498.626 153.646, 496.750 153.579 C 494.778 153.510, 494.500 153.995, 494.500 157.500 C 494.500 160.887, 494.845 161.549, 496.750 161.820 C 498.791 162.109, 499 162.683, 499 168 C 499 173.317, 498.791 173.891, 496.750 174.180 C 495.283 174.389, 494.386 175.305, 494.172 176.812 C 493.921 178.586, 494.270 179.051, 495.672 178.812 C 496.769 178.625, 497.500 179.100, 497.500 180 C 497.500 180.874, 496.769 181.377, 495.750 181.206 C 494.788 181.045, 494 181.435, 494 182.073 C 494 182.771, 494.995 183.043, 496.500 182.755 L 499 182.277 498.868 191.389 C 498.781 197.469, 498.520 199.336, 498.085 197 L 497.433 193.500 495.716 196.700 C 493.606 200.636, 493.550 202, 495.500 202 C 496.325 202, 497.007 202.563, 497.015 203.250 C 497.026 204.083, 497.354 204, 498 203 C 498.676 201.953, 498.974 203.639, 498.985 208.579 C 498.999 215.185, 498.856 215.653, 496.851 215.579 C 495.669 215.536, 494.519 216.027, 494.294 216.671 C 494.033 217.419, 494.629 217.648, 495.943 217.305 C 498.157 216.726, 498.817 218.452, 496.750 219.417 C 495.750 219.883, 495.750 220.117, 496.750 220.583 C 498.817 221.548, 498.157 223.274, 495.943 222.695 C 494.629 222.352, 494.033 222.581, 494.294 223.329 C 494.519 223.973, 495.669 224.464, 496.851 224.421 C 498.826 224.348, 499 224.841, 499 230.500 C 499 236.159, 498.826 236.652, 496.851 236.579 C 495.669 236.536, 494.519 237.027, 494.294 237.671 C 494.033 238.419, 494.629 238.648, 495.943 238.305 C 498.507 237.634, 498.525 238.772, 496 242 C 493.419 245.300, 493.506 246, 496.500 246 C 498.958 246, 499 246.133, 499 254 C 499 258.667, 499.417 262, 500 262 C 500.603 262, 501 266.167, 501 272.500 C 501 279.323, 500.623 283, 499.925 283 C 498.075 283, 484.600 274.808, 482.500 272.407 C 480.613 270.250, 382.519 213, 380.709 213 C 379.330 213, 370.416 232.797, 367.651 242 C 363.246 256.659, 361.694 267.340, 361.694 283 C 361.694 304.641, 365.669 322.765, 374.613 341.905 C 377.033 347.083, 378.898 351.393, 378.757 351.482 C 378.615 351.571, 374.788 353.792, 370.250 356.417 C 365.712 359.042, 362 361.631, 362 362.170 C 362 363.766, 370.199 375.926, 376.764 384.065 C 403.274 416.936, 447 439.556, 488.236 441.732 L 499 442.300 499 467.150 L 499 492 506.750 491.992 C 538.078 491.959, 577.309 480.545, 606.885 462.859 C 626.933 450.870, 649.235 431.442, 663.545 413.500 C 671.327 403.742, 680.384 389.875, 680.447 387.619 C 680.500 385.736, 670.508 379.827, 538.750 303.820 C 519.638 292.795, 504 283.410, 504 282.965 C 504 282.520, 511.762 277.703, 521.250 272.260 C 551.780 254.747, 617.486 216.754, 617.929 216.359 C 618.781 215.597, 615.141 209.343, 609.282 201.500 C 588.872 174.181, 558.430 155.189, 525.263 149.084 C 514.918 147.180, 500.393 145.940, 499.452 146.881 M 496 155.393 C 496 155.609, 496.698 156.054, 497.552 156.382 C 498.442 156.723, 498.843 156.555, 498.493 155.989 C 497.906 155.038, 496 154.583, 496 155.393 M 495.553 158.915 C 495.231 159.436, 495.394 160.125, 495.915 160.447 C 496.436 160.769, 497.125 160.606, 497.447 160.085 C 497.769 159.564, 497.606 158.875, 497.085 158.553 C 496.564 158.231, 495.875 158.394, 495.553 158.915 M 496 175.893 C 496 176.384, 496.675 177.045, 497.500 177.362 C 498.414 177.712, 499 177.363, 499 176.469 C 499 175.661, 498.325 175, 497.500 175 C 496.675 175, 496 175.402, 496 175.893 M 497.500 243 C 497.160 243.550, 497.359 244, 497.941 244 C 498.523 244, 499 243.550, 499 243 C 499 242.450, 498.802 242, 498.559 242 C 498.316 242, 497.840 242.450, 497.500 243 M 495.200 258.200 C 493.795 259.605, 493.580 261.377, 494.915 260.553 C 495.418 260.242, 496.057 260.553, 496.336 261.244 C 496.614 261.935, 496.878 261.262, 496.921 259.750 C 497.010 256.643, 496.877 256.523, 495.200 258.200" stroke="none" fill="black" fill-rule="evenodd"/>
	<path fill-opacity="0.549" d="M 458 16.500 C 458 20.938, 458.045 20.998, 461.250 20.864 C 463.600 20.765, 463.877 20.608, 462.250 20.294 C 461.012 20.056, 460 19.248, 460 18.500 C 460 17.752, 461.012 16.944, 462.250 16.706 L 464.500 16.272 462.250 16.136 C 461.012 16.061, 460 15.356, 460 14.570 C 460 13.783, 461.012 12.944, 462.250 12.706 C 463.877 12.392, 463.600 12.235, 461.250 12.136 C 458.045 12.002, 458 12.062, 458 16.500 M 498.286 16.500 C 498.294 19.250, 498.488 20.256, 498.718 18.736 C 498.947 17.216, 498.941 14.966, 498.704 13.736 C 498.467 12.506, 498.279 13.750, 498.286 16.500 M 512.046 13.445 C 509.418 16.612, 513.287 23.113, 516.117 20.283 C 517.012 19.388, 516.783 19.244, 515.144 19.673 C 513.239 20.171, 513 19.823, 513 16.549 C 513 13.208, 513.209 12.924, 515.250 13.498 C 517.011 13.994, 517.174 13.903, 516 13.081 C 514.007 11.685, 513.465 11.735, 512.046 13.445 M 520 16.500 C 520 19.158, 520.236 21.097, 520.525 20.808 C 521.312 20.021, 521.424 13.091, 520.662 12.329 C 520.298 11.965, 520 13.842, 520 16.500 M 537.048 13.950 C 536.249 14.455, 535.237 14.646, 534.798 14.375 C 534.359 14.104, 534.053 15.596, 534.118 17.691 C 534.229 21.255, 534.277 21.312, 534.868 18.582 C 535.702 14.734, 537.767 14.129, 538.178 17.614 C 538.669 21.783, 540.515 21.522, 540.396 17.299 C 540.285 13.358, 539.394 12.468, 537.048 13.950 M 466.751 15.526 C 467.462 16.859, 467.501 18.141, 466.866 19.276 C 466.245 20.384, 466.246 21, 466.867 21 C 467.398 21, 468.096 20.438, 468.417 19.750 C 468.883 18.750, 469.117 18.750, 469.583 19.750 C 469.904 20.438, 470.595 21, 471.119 21 C 471.691 21, 471.657 20.228, 471.032 19.061 C 470.342 17.771, 470.330 16.914, 470.997 16.502 C 471.549 16.161, 472 15.403, 472 14.819 C 472 14.148, 471.446 14.215, 470.500 15 C 469.297 15.998, 468.671 15.973, 467.336 14.872 C 465.845 13.642, 465.784 13.710, 466.751 15.526 M 475.885 14.908 C 476.992 15.609, 476.841 16.015, 475.135 16.928 C 471.926 18.645, 472.426 21, 476 21 C 478.056 21, 479 20.507, 479 19.434 C 479 17.120, 477.107 13.998, 475.715 14.015 C 474.887 14.026, 474.941 14.310, 475.885 14.908 M 480 17.441 C 480 19.398, 480.174 21, 480.387 21 C 481.208 21, 481.621 14.884, 480.833 14.397 C 480.375 14.114, 480 15.484, 480 17.441 M 483.100 15.281 C 483.155 15.952, 483.525 17.625, 483.923 19 C 484.626 21.430, 484.660 21.411, 485.144 18.288 C 485.473 16.169, 485.193 14.904, 484.321 14.570 C 483.595 14.291, 483.045 14.611, 483.100 15.281 M 487.100 15.191 C 487.155 15.911, 487.560 17.625, 488 19 C 488.765 21.387, 488.805 21.356, 488.900 18.309 C 488.955 16.554, 488.550 14.840, 488 14.500 C 487.450 14.160, 487.045 14.471, 487.100 15.191 M 490 18.506 C 490 20.978, 490.450 23, 491 23 C 491.550 23, 492 21.452, 492 19.559 C 492 17.666, 492.510 15.803, 493.134 15.417 C 493.920 14.931, 494.127 15.681, 493.808 17.858 C 493.324 21.150, 494.611 22.178, 495.691 19.364 C 496.541 17.148, 494.876 14.757, 492.199 14.348 C 490.210 14.045, 490 14.442, 490 18.506 M 502.072 14.956 C 499.999 16.237, 501.207 20.458, 503.750 20.820 C 504.988 20.995, 506 20.672, 506 20.101 C 506 19.530, 505.325 19.322, 504.500 19.638 C 503.675 19.955, 503 19.716, 503 19.107 C 503 18.498, 503.675 18, 504.500 18 C 506.362 18, 506.487 15.401, 504.659 14.700 C 503.922 14.417, 502.758 14.532, 502.072 14.956 M 523.100 15.191 C 523.155 15.911, 523.560 17.625, 524 19 C 524.765 21.387, 524.805 21.356, 524.900 18.309 C 524.955 16.554, 524.550 14.840, 524 14.500 C 523.450 14.160, 523.045 14.471, 523.100 15.191 M 529.885 14.908 C 530.992 15.609, 530.841 16.015, 529.135 16.928 C 525.926 18.645, 526.426 21, 530 21 C 532.056 21, 533 20.507, 533 19.434 C 533 17.120, 531.107 13.998, 529.715 14.015 C 528.887 14.026, 528.941 14.310, 529.885 14.908 M 503 16 C 503 16.550, 503.477 17, 504.059 17 C 504.641 17, 504.840 16.550, 504.500 16 C 504.160 15.450, 503.684 15, 503.441 15 C 503.198 15, 503 15.450, 503 16 M 475.583 17.866 C 475.152 18.563, 475.070 19.403, 475.400 19.733 C 476.295 20.628, 477.271 19.312, 476.787 17.862 C 476.449 16.846, 476.213 16.846, 475.583 17.866 M 529.583 17.866 C 529.152 18.563, 529.070 19.403, 529.400 19.733 C 530.295 20.628, 531.271 19.312, 530.787 17.862 C 530.449 16.846, 530.213 16.846, 529.583 17.866 M 504 50 L 504 57 525 57 L 546 57 546 50 L 546 43 525 43 L 504 43 504 50 M 567 50.520 L 567 58.041 587.750 57.770 L 608.500 57.500 608.794 50.250 L 609.088 43 588.044 43 L 567 43 567 50.520 M 316 50.500 L 316 57 337 57 L 358 57 358 50.500 L 358 44 337 44 L 316 44 316 50.500 M 441 50.500 L 441 57 462 57 L 483 57 483 50.500 L 483 44 462 44 L 441 44 441 50.500 M 365 47 C 364.106 47.578, 363.980 47.976, 364.687 47.985 C 365.339 47.993, 366.055 49.462, 366.277 51.250 C 366.626 54.067, 366.701 53.934, 366.840 50.250 C 366.928 47.913, 366.887 46.007, 366.750 46.015 C 366.613 46.024, 365.825 46.467, 365 47 M 492.919 47.250 C 492.874 47.938, 492.748 49.703, 492.639 51.173 C 492.530 52.643, 492.747 53.657, 493.120 53.426 C 493.832 52.986, 494.095 46, 493.400 46 C 493.180 46, 492.963 46.563, 492.919 47.250 M 506 50.500 L 506 55 525 55 L 544 55 544 50.500 L 544 46 525 46 L 506 46 506 50.500 M 554.752 46.750 C 554.551 47.163, 554.691 49.075, 555.062 51 L 555.737 54.500 555.868 50.250 C 555.992 46.261, 555.596 45.019, 554.752 46.750 M 615.079 48.583 C 615.127 49.748, 615.364 49.985, 615.683 49.188 C 615.972 48.466, 615.936 47.603, 615.604 47.271 C 615.272 46.939, 615.036 47.529, 615.079 48.583 M 680.825 51.326 C 680.452 53.151, 680.592 53.808, 681.218 53.182 C 681.751 52.649, 682.011 51.377, 681.794 50.356 C 681.503 48.981, 681.251 49.233, 680.825 51.326 M 491.872 71.692 C 491.073 72.677, 490.997 73.086, 491.688 72.671 C 492.501 72.184, 493.001 73.151, 493.270 75.729 C 493.633 79.210, 493.677 79.134, 493.832 74.750 C 494.018 69.491, 493.859 69.243, 491.872 71.692 M 498.394 71.416 C 497.359 74.112, 498.453 78.474, 500.250 78.815 C 501.212 78.997, 502 78.678, 502 78.105 C 502 77.532, 501.325 77.322, 500.500 77.638 C 499.333 78.086, 499 77.390, 499 74.500 C 499 71.554, 499.321 70.909, 500.552 71.382 C 501.442 71.723, 501.843 71.555, 501.493 70.989 C 500.608 69.557, 499.023 69.776, 498.394 71.416 M 505 70.895 C 505 71.468, 505.675 71.678, 506.500 71.362 C 507.667 70.914, 508 71.610, 508 74.500 C 508 77.390, 507.667 78.086, 506.500 77.638 C 505.675 77.322, 505 77.532, 505 78.105 C 505 78.678, 505.788 78.995, 506.750 78.810 C 508.066 78.556, 508.500 77.488, 508.500 74.500 C 508.500 71.512, 508.066 70.444, 506.750 70.190 C 505.788 70.005, 505 70.322, 505 70.895 M 494.345 92.543 C 494.019 93.392, 494.034 94.367, 494.376 94.710 C 494.719 95.053, 495 94.616, 495 93.740 C 495 92.864, 495.788 91.941, 496.750 91.689 C 498.390 91.261, 498.388 91.225, 496.719 91.116 C 495.739 91.052, 494.671 91.694, 494.345 92.543 M 501.667 91.667 C 500.583 92.751, 500.907 98.824, 502.087 99.554 C 502.685 99.923, 503.698 99.698, 504.337 99.054 C 505.224 98.160, 505.084 98.040, 503.750 98.548 C 502.278 99.108, 502 98.624, 502 95.500 C 502 92.610, 502.333 91.914, 503.500 92.362 C 504.325 92.678, 505 92.501, 505 91.969 C 505 90.869, 502.675 90.658, 501.667 91.667 M 497.167 95.105 C 496.444 96.262, 496.297 96.934, 496.841 96.598 C 497.384 96.262, 498.057 96.553, 498.336 97.244 C 498.614 97.935, 498.878 97.263, 498.921 95.750 C 499.016 92.447, 498.862 92.390, 497.167 95.105 M 494.459 113.067 C 494.096 113.653, 494.014 114.348, 494.276 114.610 C 494.538 114.872, 495.019 114.392, 495.345 113.543 C 496.021 111.781, 495.445 111.471, 494.459 113.067 M 497.564 113.293 C 497.940 114.279, 498.499 114.834, 498.807 114.526 C 499.115 114.219, 498.808 113.412, 498.124 112.733 C 497.136 111.753, 497.022 111.868, 497.564 113.293 M 501.168 116.250 L 501.336 120.500 501.725 116.812 C 501.978 114.413, 502.705 112.969, 503.807 112.678 C 505.012 112.361, 504.852 112.199, 503.250 112.116 C 501.227 112.012, 501.017 112.429, 501.168 116.250 M 494.493 117.011 C 494.112 117.628, 494.070 118.403, 494.400 118.733 C 494.730 119.063, 495 118.808, 495 118.167 C 495 116.729, 497.643 116.617, 498.342 118.025 C 498.621 118.589, 498.734 118.476, 498.592 117.775 C 498.255 116.108, 495.382 115.572, 494.493 117.011 M 501.168 136.750 C 501.017 140.571, 501.227 140.988, 503.250 140.884 C 504.852 140.801, 505.012 140.639, 503.807 140.322 C 502.705 140.031, 501.978 138.587, 501.725 136.188 L 501.336 132.500 501.168 136.750 M 498.874 150.599 C 498.805 152.745, 498.830 158.887, 498.929 164.250 C 499.101 173.479, 499.001 174, 497.055 174 C 495.925 174, 495 174.408, 495 174.906 C 495 175.405, 495.819 175.599, 496.819 175.337 C 498.508 174.895, 498.644 175.816, 498.716 188.181 C 498.765 196.536, 498.509 200.195, 498.029 198 C 497.237 194.382, 496.641 194.801, 496.961 198.750 C 497.061 199.988, 496.675 201, 496.103 201 C 495.531 201, 495.316 200.213, 495.626 199.250 C 496.101 197.773, 496.020 197.734, 495.110 199 C 493.617 201.076, 493.737 202, 495.500 202 C 496.325 202, 497.007 202.563, 497.015 203.250 C 497.026 204.083, 497.354 204, 498 203 C 498.672 201.961, 498.974 203.898, 498.985 209.309 C 498.995 214.736, 498.665 216.911, 497.900 216.438 C 497.101 215.944, 497.101 216.319, 497.900 217.814 C 499.209 220.259, 499.355 222.110, 498.081 220.097 C 497.440 219.085, 497.235 219.407, 497.346 221.251 C 497.431 222.657, 497.837 223.600, 498.250 223.345 C 498.663 223.090, 499 226.310, 499 230.500 C 499 235.785, 498.663 237.910, 497.900 237.438 C 497.101 236.944, 497.101 237.319, 497.900 238.814 C 498.505 239.944, 499 245.372, 499 250.875 C 499 256.468, 499.441 261.155, 500 261.500 C 501.154 262.213, 501.388 282.645, 500.250 283.340 C 499.185 283.992, 481.500 273.379, 481.500 272.088 C 481.500 270.722, 381.796 213.073, 380.623 213.761 C 378.838 214.807, 370.028 234.790, 367.525 243.470 C 358.128 276.048, 360.693 311.560, 374.562 340.884 C 377.003 346.045, 379 350.626, 379 351.064 C 379 351.502, 375.738 353.684, 371.750 355.913 C 367.762 358.142, 363.871 360.378, 363.103 360.883 C 361.964 361.630, 362.314 362.789, 364.994 367.145 C 381.669 394.245, 410.530 418.476, 440.398 430.451 C 456.700 436.986, 479.575 441.932, 493.733 441.982 L 498.965 442 499.233 466.750 L 499.500 491.500 510 491.265 C 574.939 489.815, 641.096 451.356, 676.577 394.429 C 679.150 390.300, 681.086 386.756, 680.878 386.552 C 680.470 386.152, 634.209 359.363, 554 313.079 C 526.225 297.052, 503.500 283.512, 503.500 282.992 C 503.500 282.471, 528.925 267.376, 560 249.447 C 591.075 231.517, 616.876 216.484, 617.335 216.039 C 618.376 215.031, 614.577 208.893, 606.481 198.500 C 583.283 168.723, 547.154 149.861, 508.443 147.319 L 499 146.698 498.874 150.599 M 494.079 157.417 C 494.036 159.021, 494.127 160.146, 494.283 159.917 C 494.439 159.688, 495.226 158.626, 496.033 157.558 C 496.840 156.490, 496.976 155.930, 496.335 156.314 C 495.695 156.698, 494.943 156.447, 494.664 155.756 C 494.386 155.065, 494.122 155.813, 494.079 157.417 M 495.813 161.683 C 496.534 161.972, 497.397 161.936, 497.729 161.604 C 498.061 161.272, 497.471 161.036, 496.417 161.079 C 495.252 161.127, 495.015 161.364, 495.813 161.683 M 494 177.906 C 494 178.405, 494.900 178.577, 496 178.290 C 497.100 178.002, 498 177.594, 498 177.383 C 498 177.173, 497.100 177, 496 177 C 494.900 177, 494 177.408, 494 177.906 M 494.768 182.168 C 495.350 182.750, 496.415 183.028, 497.137 182.788 C 497.886 182.538, 497.432 182.085, 496.080 181.731 C 494.417 181.296, 494.026 181.426, 494.768 182.168 M 494.872 258.692 C 494.118 259.623, 494.024 260.070, 494.665 259.686 C 495.305 259.302, 496.057 259.553, 496.336 260.244 C 496.614 260.935, 496.878 260.488, 496.921 259.250 C 497.016 256.555, 496.680 256.464, 494.872 258.692 M 465 304.648 C 446.575 315.363, 416.875 332.500, 399 342.730 C 381.125 352.959, 366.101 361.676, 365.614 362.100 C 365.127 362.525, 367.358 366.838, 370.572 371.686 C 378.572 383.754, 399.502 404.554, 412 412.858 C 435.189 428.265, 461.872 437.426, 489.750 439.552 L 499 440.258 499 362.629 C 499 319.933, 498.887 285.037, 498.750 285.082 C 498.613 285.128, 483.425 293.932, 465 304.648" stroke="none" fill="black" fill-rule="evenodd"/>
	<path fill-opacity="0.583" d="M 504 50.500 L 504 57 525 57 L 546 57 546 50.500 L 546 44 525 44 L 504 44 504 50.500 M 567 50.500 L 567 57 587.500 57 L 608 57 608 50.500 L 608 44 587.500 44 L 567 44 567 50.500 M 318 50.500 L 318 56 337 56 L 356 56 356 50.500 L 356 45 337 45 L 318 45 318 50.500 M 443.197 50.228 L 443.500 55.500 462.500 55.500 L 481.500 55.500 481.500 50.500 L 481.500 45.500 462.197 45.228 L 442.894 44.956 443.197 50.228 M 506 50.500 L 506 56 525 56 L 544 56 544 50.500 L 544 45 525 45 L 506 45 506 50.500 M 501 214.933 C 501 251.362, 501.382 281.017, 501.850 280.833 C 506.240 279.111, 615 215.302, 615 214.448 C 615 212.245, 604.581 198.517, 596.592 190.192 C 573.583 166.220, 542.742 151.552, 510.750 149.366 L 501 148.699 501 214.933 M 377.246 219.750 C 372.588 228.583, 367.361 243.479, 364.863 255.043 C 363.003 263.657, 362.605 268.585, 362.605 283 C 362.605 297.415, 363.003 302.343, 364.863 310.957 C 367.356 322.497, 372.624 337.550, 377.106 345.938 C 379.319 350.081, 379.712 351.573, 378.755 352.205 C 378.065 352.661, 374.238 354.858, 370.250 357.087 C 366.262 359.316, 363 361.676, 363 362.331 C 363 364.029, 371.327 376.274, 378.075 384.500 C 404.187 416.328, 443.574 437.031, 485.500 440.966 C 491.550 441.534, 497.512 441.999, 498.750 441.999 L 501 442 501 466 L 501 490 507.408 490 C 531.893 490, 566.786 481.083, 592.393 468.282 C 624.923 452.020, 654.764 425.371, 673.860 395.530 C 676.666 391.147, 678.632 387.272, 678.230 386.919 C 677.332 386.129, 504.276 286.438, 490.810 278.952 C 485.480 275.990, 480.931 272.876, 480.699 272.033 C 480.311 270.616, 383.230 214, 381.190 214 C 380.689 214, 378.914 216.588, 377.246 219.750 M 443.227 316.987 C 412.826 334.558, 384.476 350.824, 380.227 353.135 C 375.977 355.446, 370.596 358.515, 368.269 359.956 L 364.038 362.574 369.385 370.537 C 396.372 410.721, 441.606 436.931, 488.750 439.699 L 499 440.301 499 362.651 C 499 319.943, 498.887 285.009, 498.750 285.020 C 498.613 285.031, 473.627 299.416, 443.227 316.987" stroke="none" fill="black" fill-rule="evenodd"/>
	<path fill-opacity="0.473" d="M 567 50.500 L 567 57 587.500 57 L 608 57 608 50.500 L 608 44 587.500 44 L 567 44 567 50.500 M 444 50.500 L 444 55 462.500 55 L 481 55 481 50.500 L 481 46 462.500 46 L 444 46 444 50.500 M 375.744 223.713 C 366.116 244.038, 362.642 259.758, 362.642 283 C 362.642 300.310, 364.241 311.081, 369.024 326 C 371.649 334.186, 380.039 352, 381.270 352 C 381.779 352, 407.633 337.319, 438.724 319.375 C 469.815 301.431, 496.268 286.223, 497.510 285.579 C 499.630 284.480, 499.198 284.080, 490.383 278.985 C 485.222 276.002, 481 273.042, 481 272.408 C 481 271.401, 384.532 214.966, 381.526 214.213 C 380.896 214.056, 378.294 218.331, 375.744 223.713 M 501 387.549 L 501 490.014 508.250 489.469 C 532.547 487.643, 547.140 484.929, 565.500 478.820 C 609.591 464.150, 648.347 434.122, 673.480 395.158 C 676.085 391.120, 677.830 387.477, 677.358 387.062 C 676.886 386.648, 645 368.155, 606.500 345.967 C 568 323.779, 528.513 301.003, 518.750 295.355 L 501 285.084 501 387.549" stroke="none" fill="black" fill-rule="evenodd"/>
</svg>