<svg xmlns="http://www.w3.org/2000/svg" width="500" height="250" viewBox="0 0 500 250" version="1.1">
	<path d="M 249.750 73.583 C 249.338 73.996, 249 75.185, 249 76.226 C 249 77.266, 248.550 77.840, 248 77.500 C 247.450 77.160, 247 77.809, 247 78.941 C 247 80.073, 247.450 81, 248 81 C 248.550 81, 249 82.350, 249 84 C 249 85.650, 248.550 87, 248 87 C 247.450 87, 247 87.477, 247 88.059 C 247 88.641, 247.450 88.840, 248 88.500 C 249.453 87.602, 249.264 97.336, 247.800 98.800 C 246.867 99.733, 246.867 100.267, 247.800 101.200 C 249.388 102.788, 249.350 107.996, 247.750 108.015 C 246.943 108.025, 246.867 108.291, 247.536 108.765 C 249.157 109.914, 249.390 117.138, 247.838 118.121 C 246.840 118.754, 246.817 118.973, 247.750 118.985 C 248.438 118.993, 249 119.638, 249 120.417 C 249 121.196, 248.438 122.060, 247.750 122.338 C 246.750 122.741, 246.750 122.858, 247.750 122.921 C 248.446 122.965, 249 124.292, 249 125.917 C 249 127.521, 248.438 129.060, 247.750 129.338 C 247.003 129.639, 247.205 129.874, 248.250 129.921 C 249.695 129.986, 250 130.959, 250 135.500 C 250 138.525, 249.716 141, 249.368 141 C 248.494 141, 241.622 136.780, 240.964 135.839 C 240.042 134.523, 191.913 107, 190.533 107 C 188.992 107, 184.647 116.993, 182.507 125.460 C 179.275 138.243, 181.032 157.139, 186.635 169.874 C 187.936 172.830, 189 175.389, 189 175.560 C 189 175.732, 187.200 176.884, 185 178.120 C 182.800 179.357, 181 180.673, 181 181.045 C 181 182.160, 185.943 189.156, 190.632 194.676 C 202.296 208.408, 223.345 219.125, 241.702 220.677 L 249 221.293 249 233.795 L 249 246.296 257.750 245.705 C 288.393 243.634, 318.861 226.238, 335.970 201.045 C 338.147 197.839, 340.057 194.725, 340.214 194.126 C 340.371 193.527, 320.810 181.666, 296.744 167.768 C 272.679 153.871, 252.941 142.075, 252.882 141.555 C 252.823 141.035, 264.990 133.574, 279.918 124.975 C 294.847 116.375, 307.552 108.848, 308.153 108.247 C 309.547 106.853, 306.714 102.604, 299.098 94.665 C 287.254 82.320, 273.527 75.574, 256 73.487 C 252.975 73.127, 250.162 73.170, 249.750 73.583 M 246.770 144.378 C 245.818 145.101, 231.106 153.722, 214.076 163.537 L 183.112 181.382 184.806 184.441 C 185.738 186.123, 190.592 191.620, 195.593 196.655 C 203.628 204.747, 205.895 206.391, 215.093 210.802 C 226.244 216.151, 231.597 217.745, 242.250 218.891 L 249 219.618 249 181.309 C 249 160.239, 248.887 143.014, 248.750 143.032 C 248.613 143.049, 247.721 143.655, 246.770 144.378" stroke="none" fill="true" fill-rule="evenodd"/>
</svg>