<svg xmlns="http://www.w3.org/2000/svg" width="1000" height="500" viewBox="0 0 1000 500" version="1.1">
	<rect x="0" y="0" width="100%" height="100%" fill="#ffffff" />
	<path fill-opacity="0.082" d="M 458 17 C 458 21.889, 458.067 22, 461 22 C 462.650 22, 464 21.550, 464 21 C 464 20.450, 463.100 20, 462 20 C 460.900 20, 460 19.550, 460 19 C 460 18.450, 460.900 18, 462 18 C 463.100 18, 464 17.550, 464 17 C 464 16.450, 463.100 16, 462 16 C 460.900 16, 460 15.550, 460 15 C 460 14.450, 460.900 14, 462 14 C 463.100 14, 464 13.550, 464 13 C 464 12.450, 462.650 12, 461 12 C 458.067 12, 458 12.111, 458 17 M 497 17 C 497 22.121, 498.110 23.357, 499.920 20.250 C 500.481 19.288, 500.953 19.014, 500.970 19.643 C 501.015 21.368, 504.068 22.189, 505.627 20.895 C 507.521 19.323, 507.353 15.073, 505.368 14.311 C 504.470 13.966, 502.895 14.209, 501.868 14.851 C 500.277 15.844, 500 15.719, 500 14.008 C 500 12.890, 499.335 12, 498.500 12 C 497.367 12, 497 13.222, 497 17 M 510.867 14.393 C 509.933 16.442, 510.030 17.398, 511.381 19.459 C 513.320 22.418, 513.935 22.538, 516.559 20.469 C 518.434 18.991, 518.415 18.948, 516 19.219 C 513.908 19.454, 513.446 19.031, 513.171 16.622 C 512.866 13.952, 513.036 13.792, 515.519 14.415 C 517.474 14.906, 518.081 14.738, 517.771 13.794 C 517.537 13.082, 516.147 12.358, 514.681 12.184 C 512.638 11.942, 511.749 12.457, 510.867 14.393 M 519 17.083 C 519 22.735, 521.011 23.592, 522.132 18.418 L 522.763 15.500 522.882 18.750 C 522.998 21.952, 524.262 23.002, 525.530 20.951 C 525.895 20.361, 526.686 20.265, 527.339 20.732 C 527.978 21.188, 530.075 21.548, 532 21.531 C 535.066 21.504, 535.539 21.159, 535.816 18.750 C 536.221 15.232, 537.770 15.182, 538.184 18.673 C 538.744 23.406, 540.674 22.416, 540.470 17.500 C 540.263 12.550, 539.359 10.802, 538.077 12.876 C 537.568 13.699, 535.336 14.179, 532.131 14.154 C 527.523 14.119, 526.994 14.338, 526.937 16.307 L 526.873 18.500 525.969 16.250 C 525.471 15.012, 524.375 14, 523.532 14 C 522.690 14, 522 13.550, 522 13 C 522 12.450, 521.325 12, 520.500 12 C 519.363 12, 519 13.231, 519 17.083 M 466.119 16.222 C 466.879 17.642, 466.871 18.529, 466.093 19.307 C 465.492 19.908, 465 20.760, 465 21.200 C 465 22.492, 467.786 22.116, 468.341 20.750 C 468.696 19.874, 469.095 19.824, 469.674 20.582 C 470.128 21.178, 472.971 21.628, 475.990 21.582 C 481.256 21.503, 481.507 21.378, 482.122 18.500 L 482.763 15.500 482.882 18.833 C 483.027 22.934, 485.214 22.654, 486.132 18.418 L 486.763 15.500 486.882 18.857 C 486.971 21.404, 487.362 22.075, 488.500 21.638 C 489.414 21.288, 490 21.637, 490 22.531 C 490 23.339, 490.450 24, 491 24 C 491.550 24, 492 23.325, 492 22.500 C 492 21.675, 492.337 21.053, 492.750 21.118 C 495.412 21.539, 496.105 20.777, 495.813 17.750 L 495.500 14.500 480.276 14.365 C 465.361 14.232, 465.074 14.270, 466.119 16.222 M 471.600 16.600 C 471.244 17.527, 471.178 18.511, 471.453 18.786 C 471.728 19.061, 472.244 18.527, 472.600 17.600 C 472.956 16.673, 473.022 15.689, 472.747 15.414 C 472.472 15.139, 471.956 15.673, 471.600 16.600 M 492.500 18 C 492.840 18.550, 493.316 19, 493.559 19 C 493.802 19, 494 18.550, 494 18 C 494 17.450, 493.523 17, 492.941 17 C 492.359 17, 492.160 17.450, 492.500 18 M 402 49.980 L 402 57 423.046 57 L 444.091 57 443.796 50.250 L 443.500 43.500 422.750 43.230 L 402 42.959 402 49.980 M 504 50.500 L 504 57 525 57 L 546 57 546 50.500 L 546 44 525 44 L 504 44 504 50.500 M 454 45.883 C 454 46.369, 453.069 47.010, 451.931 47.308 C 450.271 47.742, 449.925 48.506, 450.181 51.174 C 450.435 53.820, 450.960 54.523, 452.750 54.613 C 454.790 54.716, 455 54.274, 455 49.863 C 455 47.189, 454.775 45, 454.500 45 C 454.225 45, 454 45.398, 454 45.883 M 462.686 46.376 C 462.361 47.224, 461.221 47.574, 459.720 47.287 C 458.070 46.971, 457.078 47.355, 456.648 48.476 C 456.133 49.817, 456.438 49.998, 458.256 49.432 C 460.413 48.761, 460.403 48.815, 458 50.847 C 455.875 52.643, 455.725 53.110, 457 53.964 C 460.061 56.015, 461.993 55.179, 462.118 51.750 L 462.237 48.500 462.869 51.449 C 463.438 54.098, 463.942 54.428, 467.811 54.687 L 472.119 54.976 471.810 51.238 C 471.567 48.311, 471.039 47.434, 469.377 47.197 C 468.132 47.020, 466.998 47.563, 466.634 48.513 C 466.135 49.811, 466.456 49.994, 468.256 49.441 C 469.490 49.062, 470.275 48.925, 470 49.136 C 469.725 49.348, 468.422 50.417, 467.105 51.511 L 464.709 53.500 465.252 50.563 C 466.080 46.076, 464.064 42.785, 462.686 46.376 M 485.774 46.207 C 485.124 47.986, 486.052 55, 486.938 55 C 487.738 55, 487.579 46.245, 486.763 45.430 C 486.479 45.146, 486.034 45.496, 485.774 46.207 M 489.872 46.663 C 488.802 47.959, 488.775 48.418, 489.750 48.746 C 490.438 48.977, 491 50.479, 491 52.083 C 491 53.688, 491.450 55, 492 55 C 492.550 55, 493 52.750, 493 50 C 493 44.766, 492.170 43.880, 489.872 46.663 M 556 45.883 C 556 46.369, 555.069 47.010, 553.931 47.308 C 552.271 47.742, 551.925 48.506, 552.181 51.174 C 552.435 53.820, 552.960 54.523, 554.750 54.613 C 556.790 54.716, 557 54.274, 557 49.863 C 557 47.189, 556.775 45, 556.500 45 C 556.225 45, 556 45.398, 556 45.883 M 564.686 46.376 C 564.361 47.224, 563.221 47.574, 561.720 47.287 C 560.070 46.971, 559.078 47.355, 558.648 48.476 C 558.133 49.817, 558.438 49.998, 560.256 49.432 C 562.413 48.761, 562.403 48.815, 560 50.847 C 557.875 52.643, 557.725 53.110, 559 53.964 C 562.061 56.015, 563.993 55.179, 564.118 51.750 L 564.237 48.500 564.869 51.449 C 565.438 54.098, 565.942 54.428, 569.811 54.687 L 574.119 54.976 573.810 51.238 C 573.567 48.311, 573.039 47.434, 571.377 47.197 C 570.132 47.020, 568.998 47.563, 568.634 48.513 C 568.135 49.811, 568.456 49.994, 570.256 49.441 C 571.490 49.062, 572.275 48.925, 572 49.136 C 571.725 49.348, 570.422 50.417, 569.105 51.511 L 566.709 53.500 567.252 50.563 C 568.080 46.076, 566.064 42.785, 564.686 46.376 M 587.774 46.207 C 587.124 47.986, 588.052 55, 588.938 55 C 589.738 55, 589.579 46.245, 588.763 45.430 C 588.479 45.146, 588.034 45.496, 587.774 46.207 M 591.667 45.667 C 590.292 47.041, 591.071 48.112, 593 47.500 C 594.356 47.070, 595 47.320, 595 48.278 C 595 49.054, 594.100 50.505, 593 51.500 C 590.218 54.017, 590.499 55, 594 55 C 595.650 55, 597 54.550, 597 54 C 597 53.450, 596.315 53, 595.477 53 C 594.119 53, 594.122 52.744, 595.500 50.641 C 596.350 49.343, 596.762 47.543, 596.416 46.641 C 595.786 44.999, 592.922 44.411, 591.667 45.667 M 473.672 47.750 C 473.426 48.163, 473.231 49.773, 473.238 51.329 C 473.252 54.540, 475.407 55.852, 478.004 54.229 C 479.255 53.448, 480.048 53.448, 480.829 54.229 C 481.611 55.011, 482.348 54.956, 483.458 54.035 C 486.932 51.152, 483.693 45.462, 479.919 47.819 C 478.754 48.546, 478 48.620, 478 48.008 C 478 46.846, 474.340 46.627, 473.672 47.750 M 575.400 48.162 C 574.990 48.825, 575.717 50.171, 577.091 51.295 C 579.467 53.240, 579.469 53.257, 577.250 52.566 C 575.857 52.132, 575 52.284, 575 52.964 C 575 54.664, 578.067 55.439, 580.004 54.229 C 581.255 53.448, 582.048 53.448, 582.829 54.229 C 584.361 55.761, 587.182 53.245, 586.798 50.690 C 586.363 47.791, 583.239 46.077, 581.895 48 C 581.107 49.128, 580.722 49.190, 580.341 48.250 C 579.702 46.676, 576.355 46.616, 575.400 48.162 M 451.446 50.087 C 451.077 50.685, 451.275 51.675, 451.887 52.287 C 452.704 53.104, 453 52.815, 453 51.200 C 453 48.785, 452.481 48.413, 451.446 50.087 M 553.500 50 C 553.101 50.646, 553.224 51.624, 553.774 52.174 C 554.441 52.841, 555.016 52.783, 555.500 52 C 555.899 51.354, 555.776 50.376, 555.226 49.826 C 554.559 49.159, 553.984 49.217, 553.500 50 M 499.200 77.200 C 497.786 78.614, 497.584 80.375, 498.932 79.542 C 499.445 79.225, 500.052 80.211, 500.282 81.733 C 500.579 83.696, 500.744 83.266, 500.850 80.250 C 501.015 75.583, 500.945 75.455, 499.200 77.200 M 421.470 128.617 L 343.441 166.200 324.175 250.716 C 307.700 322.990, 305.097 335.502, 306.205 337.101 C 306.917 338.130, 331.125 368.652, 360 404.928 L 412.500 470.884 500 470.884 L 587.500 470.884 638 407.432 C 689.445 342.792, 691.629 340, 690.731 340 C 690.449 340, 666.907 369.250, 638.416 405 L 586.613 470 499.992 470 L 413.372 470 359.936 402.958 C 330.546 366.085, 306.408 335.598, 306.294 335.208 C 306.181 334.819, 314.731 296.790, 325.294 250.700 L 344.500 166.900 422.271 129.448 L 500.041 91.995 577.771 129.413 L 655.500 166.832 673.177 244.155 C 682.899 286.684, 690.738 321.595, 690.596 321.737 C 690.454 321.879, 678.819 292.859, 664.740 257.247 C 647.221 212.935, 638.882 190.610, 638.317 186.513 C 637.646 181.648, 637.117 180.466, 635.496 180.205 C 634.398 180.029, 603.475 165.448, 566.777 147.801 L 500.054 115.718 431.777 148.563 C 394.225 166.627, 363.390 181.463, 363.257 181.531 C 363.123 181.598, 355.575 214.244, 346.485 254.077 C 337.394 293.910, 329.731 327.226, 329.454 328.113 C 329.125 329.171, 345.227 350.137, 376.304 389.113 L 423.656 448.500 499.786 448.756 L 575.915 449.012 605.522 411.905 C 621.807 391.495, 634.948 374.615, 634.725 374.392 C 634.503 374.169, 621.086 390.636, 604.910 410.984 L 575.500 447.981 500 447.978 L 424.500 447.974 377.500 388.950 C 349.665 353.995, 330.612 329.228, 330.774 328.213 C 331.340 324.666, 363.851 182.816, 364.168 182.509 C 364.351 182.332, 395.005 167.513, 432.289 149.577 L 500.077 116.966 566.027 148.694 C 602.300 166.145, 631.645 180.739, 631.239 181.125 C 630.832 181.511, 611.604 177.615, 588.510 172.468 L 546.520 163.110 523.284 151.896 L 500.048 140.682 442.274 168.475 C 410.498 183.761, 383.976 196.770, 383.336 197.384 C 382.275 198.400, 354 320.065, 354 323.611 C 354 324.449, 372.104 347.830, 394.232 375.568 L 434.463 426 497.696 426 L 560.930 426 562.115 428.250 C 563.295 430.491, 564.888 431.956, 566.179 431.985 C 567.746 432.020, 570.026 428.657, 569.518 427.058 C 569.148 425.890, 571.987 421.467, 578.234 413.477 L 587.500 401.627 610.987 387.384 C 623.905 379.551, 634.674 373.341, 634.918 373.585 C 635.162 373.828, 636.518 372.970, 637.931 371.677 C 642.478 367.516, 689.156 339.799, 692.382 339.345 C 694.097 339.103, 696.063 338.716, 696.750 338.484 C 698.737 337.815, 698.231 333.194, 696.043 332.023 C 694.954 331.440, 693.797 329.433, 693.433 327.497 C 693.049 325.448, 692.351 324.283, 691.736 324.663 C 691.095 325.059, 690.993 324.820, 691.473 324.044 C 691.914 323.330, 684.476 288.673, 674.394 244.468 L 656.534 166.157 578.517 128.577 C 535.608 107.908, 500.275 91.005, 500 91.015 C 499.725 91.025, 464.387 107.946, 421.470 128.617 M 441.447 170.090 L 383.394 198.099 369.064 260.930 C 360.463 298.640, 355.062 324.291, 355.555 325.089 C 356.006 325.819, 374.077 348.598, 395.712 375.709 L 435.047 425 496.774 424.982 L 558.500 424.964 553 421.901 C 537.926 413.506, 535.830 412.775, 514.151 408.354 L 492.801 404 469.151 403.964 L 445.500 403.928 411.638 361.419 L 377.776 318.911 389.353 268.220 C 396.788 235.661, 400.584 217.184, 399.965 216.565 C 397.189 213.789, 400.192 208.291, 403.849 209.452 C 406.618 210.331, 493.849 157.196, 496.076 153.275 C 498.005 149.878, 501.322 149.195, 503.159 151.816 C 504.182 153.278, 508.884 154.728, 522.505 157.783 C 532.402 160.002, 540.580 161.742, 540.677 161.649 C 540.885 161.450, 503.209 143.359, 501 142.597 C 500.175 142.313, 473.376 154.684, 441.447 170.090 M 335.213 154.821 C 336.451 155.312, 336.664 155.917, 335.979 157 C 335.457 157.825, 335.024 159.063, 335.015 159.750 C 334.992 161.630, 336.694 161.252, 337.270 159.250 C 337.547 158.287, 338.097 156.713, 338.494 155.750 C 339.084 154.316, 338.698 154.013, 336.357 154.070 C 334.296 154.121, 333.977 154.330, 335.213 154.821 M 660 155.107 C 660 155.716, 660.675 155.955, 661.500 155.638 C 662.381 155.300, 663 155.625, 663 156.424 C 663 157.173, 662.325 158.045, 661.500 158.362 C 659.011 159.317, 659.813 161.001, 662.750 160.985 C 664.673 160.974, 665.092 160.711, 664.143 160.110 C 663.197 159.510, 663.122 159.043, 663.893 158.566 C 664.502 158.190, 665 157.009, 665 155.941 C 665 154.537, 664.308 154, 662.500 154 C 661.125 154, 660 154.498, 660 155.107 M 402 217.394 C 402 217.610, 396.829 240.383, 390.510 268 C 384.190 295.617, 379.353 318.763, 379.760 319.435 C 380.167 320.107, 395.283 339.184, 413.350 361.828 L 446.200 403 465.850 402.906 L 485.500 402.812 470 399.466 C 460.311 397.374, 454.144 396.472, 453.550 397.060 C 452.115 398.480, 448.400 398.187, 447.040 396.548 C 445.459 394.643, 446.660 391, 448.868 391 C 450.074 391, 451.239 389.226, 452.701 385.165 L 454.800 379.330 428.462 346.346 L 402.123 313.362 411.411 272.931 L 420.700 232.500 413.124 224.750 C 408.956 220.488, 404.749 217, 403.773 217 C 402.798 217, 402 217.177, 402 217.394 M 416.689 254.250 C 414.043 265.938, 409.945 283.947, 407.581 294.270 L 403.283 313.040 429.361 345.762 L 455.438 378.483 456.763 373.791 L 458.088 369.100 437.465 341.609 C 423.717 323.284, 416.152 314.015, 414.773 313.809 C 411.794 313.364, 410.277 310.576, 411.930 308.584 C 412.653 307.713, 414.064 307, 415.066 307 C 416.067 307, 419.232 304.520, 422.099 301.489 C 424.966 298.458, 427.552 296.219, 427.847 296.514 C 428.142 296.808, 426.089 299.401, 423.285 302.275 C 419.435 306.220, 418.189 308.235, 418.197 310.500 C 418.206 312.834, 422.650 319.438, 438.220 340.250 C 449.227 354.962, 458.518 367, 458.866 366.999 C 459.215 366.999, 460.505 364.236, 461.733 360.860 L 463.966 354.721 445.422 331.611 L 426.879 308.500 427.573 304 C 427.955 301.525, 428.359 298.375, 428.470 297 C 428.582 295.625, 429.039 293.661, 429.487 292.637 C 429.935 291.612, 432.401 281.621, 434.968 270.434 L 439.635 250.095 431.048 241.547 C 426.325 236.846, 422.244 233, 421.980 233 C 421.716 233.001, 419.335 242.563, 416.689 254.250 M 435.861 271.247 L 431.260 291.495 436.737 285.497 C 439.749 282.199, 445.168 276.214, 448.777 272.197 L 455.341 264.893 448.447 257.947 C 444.656 254.126, 441.308 251, 441.008 251 C 440.708 251, 438.392 260.111, 435.861 271.247 M 443.249 280.338 C 430.492 294.449, 430.268 294.779, 429.056 301.203 L 427.824 307.731 445.662 330.308 C 455.473 342.726, 463.769 352.911, 464.098 352.943 C 464.427 352.974, 466.603 347.852, 468.935 341.559 L 473.175 330.118 463.251 317.809 C 457.792 311.039, 452.775 304.600, 452.101 303.500 C 451.087 301.846, 451.491 298.831, 454.438 286.057 C 458.103 270.168, 458.657 266, 457.105 266 C 456.612 266, 450.377 272.452, 443.249 280.338 M 455.677 285.445 L 451.910 301.908 461.608 314.204 C 466.942 320.967, 471.836 327.083, 472.484 327.795 C 473.410 328.814, 474.572 326.635, 477.922 317.596 C 480.406 310.891, 481.857 305.560, 481.404 304.801 C 480.977 304.085, 479.381 301.925, 477.859 300 C 475.160 296.589, 475.121 296.360, 476.328 291 L 477.566 285.500 469.160 277.500 C 464.537 273.100, 460.459 269.383, 460.100 269.241 C 459.740 269.098, 457.750 276.390, 455.677 285.445 M 477.266 291.680 C 476.244 296.148, 476.335 296.534, 479.279 300.198 C 483.083 304.931, 484.563 303.957, 484.346 296.865 C 484.232 293.153, 483.596 291.199, 481.922 289.417 C 480.673 288.087, 479.356 287, 478.994 287 C 478.633 287, 477.855 289.106, 477.266 291.680 M 294.411 340.371 C 293.299 343.268, 294.432 345.500, 297.014 345.500 C 299.110 345.500, 299.499 345.030, 299.497 342.500 C 299.494 340.151, 299.005 339.431, 297.242 339.180 C 295.923 338.992, 294.751 339.485, 294.411 340.371 M 699.535 339.943 C 699.176 340.524, 699.610 341, 700.500 341 C 701.390 341, 701.840 341.450, 701.500 342 C 701.160 342.550, 701.359 343, 701.941 343 C 702.523 343, 703 343.480, 703 344.067 C 703 344.709, 702.103 344.864, 700.750 344.455 C 699.015 343.931, 698.762 344.051, 699.644 344.981 C 701.726 347.177, 704.500 345.752, 704.500 342.486 C 704.500 340.190, 704.002 339.429, 702.344 339.193 C 701.159 339.024, 699.895 339.361, 699.535 339.943 M 296 344 C 296 344.550, 296.450 345, 297 345 C 297.550 345, 298 344.550, 298 344 C 298 343.450, 297.550 343, 297 343 C 296.450 343, 296 343.450, 296 344 M 581.009 406.489 C 580.329 407.308, 579.476 407.794, 579.112 407.569 C 578.749 407.345, 575.312 409.070, 571.475 411.404 C 566.873 414.204, 564.393 416.371, 564.187 417.776 C 563.723 420.927, 560.020 421.743, 557.926 419.157 C 556.412 417.287, 554.213 416.549, 544 414.478 C 542.625 414.199, 546 416.444, 551.500 419.467 C 557 422.490, 562.268 424.971, 563.207 424.981 C 564.146 424.992, 567.459 421.850, 570.570 418 C 573.680 414.150, 576.455 411, 576.735 411 C 577.310 411, 576.849 411.666, 571.885 418 C 567.741 423.288, 565.804 426.432, 568.189 424 C 570.414 421.731, 583.172 405, 582.677 405 C 582.439 405, 581.689 405.670, 581.009 406.489 M 577.667 408.667 C 577.300 409.033, 577 409.798, 577 410.367 C 577 410.993, 577.466 410.934, 578.183 410.217 C 578.834 409.566, 579.134 408.801, 578.850 408.517 C 578.566 408.233, 578.033 408.300, 577.667 408.667 M 405.411 479.498 C 405.066 480.872, 405.044 482.672, 405.361 483.498 C 406.122 485.482, 409.622 485.427, 410.393 483.418 C 411.272 481.128, 411.222 481.025, 408.750 480.031 L 406.500 479.127 408.809 479.063 C 411.560 478.988, 410.742 477, 407.960 477 C 406.744 477, 405.808 477.918, 405.411 479.498 M 590.545 479.953 C 587.756 482.864, 587.724 483, 589.813 483 C 591.016 483, 592 483.450, 592 484 C 592 485.506, 593.709 485.201, 594.329 483.585 C 594.628 482.806, 594.556 480.985, 594.168 479.537 L 593.465 476.906 590.545 479.953 M 406.500 482 C 406.160 482.550, 406.584 483, 407.441 483 C 408.298 483, 409 482.550, 409 482 C 409 481.450, 408.577 481, 408.059 481 C 407.541 481, 406.840 481.450, 406.500 482" stroke="none" fill="black" fill-rule="evenodd"/>
	<path fill-opacity="0.342" d="M 458 16.500 C 458 20.938, 458.045 20.998, 461.250 20.864 C 463.600 20.765, 463.877 20.608, 462.250 20.294 C 461.012 20.056, 460 19.248, 460 18.500 C 460 17.752, 461.012 16.944, 462.250 16.706 L 464.500 16.272 462.250 16.136 C 461.012 16.061, 460 15.356, 460 14.570 C 460 13.783, 461.012 12.944, 462.250 12.706 C 463.877 12.392, 463.600 12.235, 461.250 12.136 C 458.045 12.002, 458 12.062, 458 16.500 M 497 16.500 C 497 18.975, 497.450 21, 498 21 C 498.550 21, 499 18.975, 499 16.500 C 499 14.025, 498.550 12, 498 12 C 497.450 12, 497 14.025, 497 16.500 M 512.050 13.440 C 511.393 14.231, 511.001 16.144, 511.178 17.690 C 511.416 19.766, 512.118 20.587, 513.865 20.835 C 515.166 21.019, 516.741 20.623, 517.365 19.956 C 518.245 19.015, 517.867 18.891, 515.684 19.407 C 512.992 20.042, 512.882 19.926, 513.184 16.786 C 513.430 14.225, 513.908 13.570, 515.350 13.817 C 516.461 14.007, 516.937 13.707, 516.541 13.067 C 515.612 11.563, 513.459 11.742, 512.050 13.440 M 519 16.500 C 519 21.628, 521.565 22.995, 522.284 18.250 L 522.700 15.500 522.850 18.250 C 523.026 21.479, 526 22.142, 526 18.952 C 526 16.976, 521.601 12, 519.854 12 C 519.384 12, 519 14.025, 519 16.500 M 538.300 13.100 C 537.713 13.687, 535.159 14.167, 532.624 14.167 C 530.089 14.167, 527.713 14.656, 527.343 15.253 C 526.904 15.965, 527.332 16.108, 528.586 15.667 C 530.376 15.038, 530.387 15.083, 528.750 16.358 C 527.788 17.107, 527 18.458, 527 19.360 C 527 20.637, 527.996 21, 531.500 21 C 535.833 21, 536 20.889, 536 18 C 536 16.350, 536.450 15, 537 15 C 537.550 15, 538 16.350, 538 18 C 538 19.733, 538.528 21, 539.250 21 C 540.070 21.001, 540.448 19.601, 540.350 16.934 C 540.178 12.293, 539.805 11.595, 538.300 13.100 M 466.400 17.333 C 466.400 20.256, 466.720 20.667, 469 20.667 C 471.280 20.667, 471.600 20.256, 471.600 17.333 C 471.600 13.954, 470.647 12.970, 469.583 15.250 C 469.117 16.250, 468.883 16.250, 468.417 15.250 C 467.353 12.970, 466.400 13.954, 466.400 17.333 M 473.375 15.202 C 472.898 15.973, 473.288 16.123, 474.586 15.667 C 476.376 15.038, 476.387 15.083, 474.750 16.358 C 471.568 18.836, 472.566 21, 476.892 21 C 480.227 21, 480.874 20.636, 481.422 18.454 C 481.774 17.054, 481.841 15.552, 481.573 15.118 C 480.802 13.871, 474.155 13.939, 473.375 15.202 M 482.810 17.500 C 483.290 21.610, 484.518 22.058, 485.422 18.454 C 486.137 15.604, 485.496 14, 483.642 14 C 482.813 14, 482.537 15.162, 482.810 17.500 M 486.810 17.500 C 487.035 19.425, 487.620 21, 488.109 21 C 488.599 21, 489 19.425, 489 17.500 C 489 15.296, 488.519 14, 487.701 14 C 486.805 14, 486.528 15.086, 486.810 17.500 M 490 18.560 C 490 21.002, 490.450 23, 491 23 C 491.550 23, 492 22.602, 492 22.117 C 492 21.631, 492.933 20.989, 494.074 20.691 C 495.663 20.275, 496.072 19.493, 495.824 17.341 C 495.564 15.085, 494.959 14.492, 492.750 14.326 C 490.132 14.130, 490 14.333, 490 18.560 M 501.384 15.442 C 499.887 19.344, 503.703 22.811, 506.356 19.958 C 507.244 19.003, 506.997 18.849, 505.250 19.270 C 504.012 19.569, 503 19.405, 503 18.906 C 503 18.408, 503.900 18, 505 18 C 507.267 18, 507.563 16.963, 505.800 15.200 C 504.172 13.572, 502.057 13.688, 501.384 15.442 M 492 17.441 C 492 18.234, 492.450 19.160, 493 19.500 C 493.550 19.840, 494 19.191, 494 18.059 C 494 16.927, 493.550 16, 493 16 C 492.450 16, 492 16.648, 492 17.441 M 529 19.059 C 529 19.641, 529.450 19.840, 530 19.500 C 530.550 19.160, 531 18.684, 531 18.441 C 531 18.198, 530.550 18, 530 18 C 529.450 18, 529 18.477, 529 19.059 M 402 50.500 L 402 57 423 57 L 444 57 444 50.500 L 444 44 423 44 L 402 44 402 50.500 M 454 46.389 C 454 47.153, 453.212 47.715, 452.250 47.639 C 449.443 47.416, 449.878 53.041, 452.750 54.103 C 454.893 54.896, 455 54.699, 455 49.968 C 455 47.235, 454.775 45, 454.500 45 C 454.225 45, 454 45.625, 454 46.389 M 485.756 46.207 C 485.132 47.847, 485.999 53.881, 486.942 54.464 C 487.741 54.958, 487.569 46.236, 486.763 45.430 C 486.479 45.146, 486.026 45.496, 485.756 46.207 M 556 46.500 C 556 47.325, 555.663 47.947, 555.250 47.882 C 551.238 47.248, 550.803 52.662, 554.750 54.110 C 556.892 54.896, 557 54.698, 557 49.968 C 557 47.235, 556.775 45, 556.500 45 C 556.225 45, 556 45.675, 556 46.500 M 587.756 46.207 C 587.132 47.847, 587.999 53.881, 588.942 54.464 C 589.741 54.958, 589.569 46.236, 588.763 45.430 C 588.479 45.146, 588.026 45.496, 587.756 46.207 M 592.500 46 C 592.160 46.550, 592.584 47, 593.441 47 C 595.422 47, 595.455 49.403, 593.500 51.357 C 591.414 53.443, 591.628 55, 594 55 C 595.100 55, 596 54.550, 596 54 C 596 53.450, 595.560 53, 595.021 53 C 594.419 53, 594.470 52.063, 595.153 50.564 C 596.822 46.900, 594.457 42.833, 592.500 46 M 462.864 46.469 C 462.189 47.145, 463.095 54, 463.859 54 C 464.212 54, 464.494 52.456, 464.487 50.570 C 464.474 47.219, 463.805 45.528, 462.864 46.469 M 490.250 46.662 C 489.563 46.940, 489 47.606, 489 48.142 C 489 48.679, 489.421 48.858, 489.935 48.540 C 490.450 48.222, 491.053 49.433, 491.275 51.231 C 491.629 54.088, 491.700 53.964, 491.840 50.250 C 491.928 47.913, 491.887 46.036, 491.750 46.079 C 491.613 46.122, 490.938 46.385, 490.250 46.662 M 564.864 46.469 C 564.141 47.192, 565.122 54, 565.948 54 C 566.350 54, 566.624 52.449, 566.558 50.553 C 566.440 47.149, 565.778 45.555, 564.864 46.469 M 457.534 47.945 C 457.170 48.534, 457.681 49.014, 458.691 49.032 C 460.407 49.062, 460.410 49.132, 458.750 50.392 C 456.220 52.312, 456.601 54, 459.563 54 C 461.852 54, 462.093 53.652, 461.813 50.758 C 461.498 47.498, 458.876 45.773, 457.534 47.945 M 467.534 47.945 C 467.170 48.534, 467.681 49.014, 468.691 49.032 C 470.407 49.062, 470.410 49.132, 468.750 50.392 C 466.220 52.312, 466.601 54, 469.563 54 C 471.852 54, 472.093 53.652, 471.813 50.758 C 471.498 47.498, 468.876 45.773, 467.534 47.945 M 473.415 48.137 C 473.024 48.771, 473.742 50.051, 475.038 51.029 C 477.223 52.677, 477.247 52.807, 475.432 53.171 C 473.631 53.533, 473.621 53.607, 475.288 54.263 C 477.876 55.281, 478.843 52.089, 476.471 50.355 C 474.760 49.104, 474.752 49, 476.368 49 C 477.330 49, 477.840 48.550, 477.500 48 C 476.667 46.652, 474.283 46.733, 473.415 48.137 M 480.068 48.419 C 478.254 50.603, 479.182 53.452, 481.829 53.829 C 483.887 54.121, 484.104 53.803, 483.819 50.906 C 483.459 47.239, 481.903 46.207, 480.068 48.419 M 559.534 47.945 C 559.170 48.534, 559.681 49.014, 560.691 49.032 C 562.407 49.062, 562.410 49.132, 560.750 50.392 C 558.220 52.312, 558.601 54, 561.563 54 C 563.852 54, 564.093 53.652, 563.813 50.758 C 563.498 47.498, 560.876 45.773, 559.534 47.945 M 569.534 47.945 C 569.170 48.534, 569.681 49.014, 570.691 49.032 C 572.407 49.062, 572.410 49.132, 570.750 50.392 C 568.220 52.312, 568.601 54, 571.563 54 C 573.852 54, 574.093 53.652, 573.813 50.758 C 573.498 47.498, 570.876 45.773, 569.534 47.945 M 575.415 48.137 C 575.023 48.772, 575.770 50.087, 577.106 51.115 C 579.336 52.830, 579.363 52.958, 577.500 52.993 C 575.856 53.024, 575.765 53.198, 576.992 53.974 C 577.881 54.536, 578.849 54.551, 579.387 54.013 C 579.885 53.515, 581.609 53.372, 583.220 53.694 C 586.039 54.258, 586.136 54.154, 585.824 50.890 C 585.450 46.979, 583.149 46.316, 581.491 49.642 C 580.544 51.542, 580.209 51.626, 578.521 50.392 C 576.788 49.124, 576.774 49, 578.368 49 C 579.330 49, 579.840 48.550, 579.500 48 C 578.667 46.652, 576.283 46.733, 575.415 48.137 M 451 51 C 451 52.111, 451.667 53, 452.500 53 C 453.333 53, 454 52.111, 454 51 C 454 49.889, 453.333 49, 452.500 49 C 451.667 49, 451 49.889, 451 51 M 480.813 49.683 C 481.534 49.972, 482.397 49.936, 482.729 49.604 C 483.061 49.272, 482.471 49.036, 481.417 49.079 C 480.252 49.127, 480.015 49.364, 480.813 49.683 M 553 51 C 553 52.111, 553.667 53, 554.500 53 C 555.333 53, 556 52.111, 556 51 C 556 49.889, 555.333 49, 554.500 49 C 553.667 49, 553 49.889, 553 51 M 499 78 C 498.112 78.574, 497.983 78.976, 498.684 78.985 C 499.335 78.993, 500.055 80.237, 500.284 81.750 C 500.619 83.962, 500.730 83.766, 500.850 80.750 C 500.933 78.688, 500.887 77.007, 500.750 77.015 C 500.613 77.024, 499.825 77.467, 499 78 M 496.767 152.806 C 495.261 156.796, 407.118 210.596, 402.825 210.146 C 400.887 209.942, 399.788 210.388, 399.338 211.560 C 398.442 213.897, 400.275 216.494, 402.845 216.529 C 404.235 216.548, 418.447 229.285, 444.231 253.619 C 475.154 282.803, 483.724 291.426, 484.554 294.191 C 485.536 297.462, 484.417 300.880, 468.153 344.274 C 454.821 379.846, 450.262 390.960, 448.849 391.329 C 447.643 391.645, 447 392.725, 447 394.438 C 447 397.568, 449.290 398.716, 452.317 397.103 C 455.699 395.301, 554.702 415.702, 557.849 418.849 C 559.611 420.611, 560.437 420.836, 562.023 419.988 C 563.110 419.406, 564.011 418.158, 564.025 417.215 C 564.042 416.118, 567.733 413.299, 574.275 409.389 C 579.899 406.028, 608.350 388.753, 637.500 371 C 678.834 345.827, 691.270 338.698, 694 338.611 C 697.065 338.514, 697.540 338.149, 697.824 335.676 C 698.069 333.535, 697.663 332.725, 696.144 332.328 C 693.714 331.692, 695.542 336.034, 663.066 253.775 C 641.524 199.211, 637.212 187.468, 637.673 184.628 C 638.134 181.788, 637.880 181.097, 636.177 180.556 C 635.048 180.198, 633.309 180.394, 632.313 180.993 C 630.896 181.843, 616.742 179.015, 567.500 168.045 C 515.045 156.359, 504.270 153.674, 503.128 152.005 C 501.123 149.075, 498.028 149.465, 496.767 152.806 M 335.250 154.689 C 337.185 155.195, 337.545 156.545, 336 157.500 C 335.450 157.840, 335.002 158.879, 335.004 159.809 C 335.006 160.871, 335.750 160.283, 337.004 158.226 C 339.548 154.053, 339.534 153.977, 336.250 154.116 C 334.558 154.187, 334.173 154.408, 335.250 154.689 M 660.558 154.907 C 660.249 155.405, 660.898 155.578, 661.999 155.290 C 664.597 154.611, 664.537 155.800, 661.826 158.686 L 659.651 161 662.576 160.884 C 664.409 160.811, 664.819 160.592, 663.675 160.296 C 661.963 159.854, 661.954 159.709, 663.522 157.975 C 664.443 156.958, 664.900 155.648, 664.539 155.063 C 663.736 153.763, 661.323 153.668, 660.558 154.907 M 295.071 340.867 C 293.691 343.446, 294.704 346, 297.107 346 C 299.021 346, 299.134 345.786, 299.333 341.758 C 299.477 338.852, 296.485 338.226, 295.071 340.867 M 700 339.969 C 700 340.501, 700.675 340.678, 701.500 340.362 C 702.325 340.045, 703 340.247, 703 340.810 C 703 341.373, 702.438 342.060, 701.750 342.338 C 700.750 342.741, 700.750 342.858, 701.750 342.921 C 702.438 342.964, 703 343.480, 703 344.067 C 703 344.701, 702.136 344.860, 700.875 344.460 C 699.445 344.006, 698.973 344.148, 699.434 344.893 C 700.352 346.379, 703.732 346.305, 704.237 344.788 C 705.081 342.257, 703.756 339, 701.883 339 C 700.848 339, 700 339.436, 700 339.969 M 296 343.500 C 296 344.325, 296.450 345, 297 345 C 297.550 345, 298 344.325, 298 343.500 C 298 342.675, 297.550 342, 297 342 C 296.450 342, 296 342.675, 296 343.500 M 405.607 479.582 C 404.685 481.983, 404.834 482.187, 407 481.500 C 408.443 481.042, 409 481.320, 409 482.500 C 409 483.730, 408.443 483.966, 406.750 483.455 C 404.976 482.919, 404.750 483.039, 405.683 484.020 C 406.333 484.705, 407.571 484.995, 408.433 484.664 C 410.606 483.830, 410.459 480.018, 408.250 479.930 C 406.754 479.870, 406.790 479.735, 408.500 479 C 410.445 478.164, 410.441 478.139, 408.357 478.070 C 407.178 478.032, 405.941 478.712, 405.607 479.582 M 590.655 479.829 C 588.483 482.229, 588.567 483, 591 483 C 592.100 483, 593.007 483.563, 593.015 484.250 C 593.027 485.200, 593.231 485.184, 593.864 484.185 C 594.798 482.713, 594.168 478, 593.038 478 C 592.638 478, 591.565 478.823, 590.655 479.829 M 590.500 481 C 590.160 481.550, 590.584 482, 591.441 482 C 592.298 482, 593 481.550, 593 481 C 593 480.450, 592.577 480, 592.059 480 C 591.541 480, 590.840 480.450, 590.500 481" stroke="none" fill="black" fill-rule="evenodd"/>
	<path fill-opacity="0.331" d="M 458 16.500 C 458 20.938, 458.045 20.998, 461.250 20.864 C 463.600 20.765, 463.877 20.608, 462.250 20.294 C 461.012 20.056, 460 19.248, 460 18.500 C 460 17.752, 461.012 16.944, 462.250 16.706 L 464.500 16.272 462.250 16.136 C 461.012 16.061, 460 15.356, 460 14.570 C 460 13.783, 461.012 12.944, 462.250 12.706 C 463.877 12.392, 463.600 12.235, 461.250 12.136 C 458.045 12.002, 458 12.062, 458 16.500 M 498.286 16.500 C 498.294 19.250, 498.488 20.256, 498.718 18.736 C 498.947 17.216, 498.941 14.966, 498.704 13.736 C 498.467 12.506, 498.279 13.750, 498.286 16.500 M 514.733 13.124 C 515.412 13.808, 516.219 14.115, 516.526 13.807 C 516.834 13.499, 516.279 12.940, 515.293 12.564 C 513.868 12.022, 513.753 12.136, 514.733 13.124 M 520 16.500 C 520 19.158, 520.236 21.097, 520.525 20.808 C 521.312 20.021, 521.424 13.091, 520.662 12.329 C 520.298 11.965, 520 13.842, 520 16.500 M 511.384 14.442 C 509.979 18.104, 513.701 22.699, 516.117 20.283 C 517.012 19.388, 516.783 19.244, 515.144 19.673 C 512.970 20.241, 512.497 19.181, 512.948 14.750 C 513.163 12.636, 512.153 12.437, 511.384 14.442 M 537.889 13.667 C 537.601 15.835, 538.265 19.596, 539.086 20.450 C 539.645 21.032, 540 20.159, 540 18.200 C 540 16.440, 540.034 14.674, 540.075 14.275 C 540.181 13.252, 538.024 12.652, 537.889 13.667 M 466.751 15.526 C 467.462 16.859, 467.501 18.141, 466.866 19.276 C 466.245 20.384, 466.246 21, 466.867 21 C 467.398 21, 468.096 20.438, 468.417 19.750 C 468.883 18.750, 469.117 18.750, 469.583 19.750 C 469.904 20.438, 470.595 21, 471.119 21 C 471.720 21, 471.721 20.347, 471.120 19.224 C 470.499 18.064, 470.548 16.764, 471.262 15.474 C 472.241 13.704, 472.181 13.642, 470.677 14.872 C 469.256 16.036, 468.746 16.036, 467.336 14.872 C 465.845 13.642, 465.784 13.710, 466.751 15.526 M 480 17.441 C 480 19.398, 480.174 21, 480.387 21 C 481.208 21, 481.621 14.884, 480.833 14.397 C 480.375 14.114, 480 15.484, 480 17.441 M 487.659 17.200 C 488.501 21.622, 489 22.003, 489 18.226 C 489 16.516, 488.557 14.844, 488.015 14.509 C 487.400 14.129, 487.266 15.139, 487.659 17.200 M 490 18.500 C 490 20.975, 490.450 23, 491 23 C 491.550 23, 492 20.975, 492 18.500 C 492 16.025, 491.550 14, 491 14 C 490.450 14, 490 16.025, 490 18.500 M 502.122 15.278 C 500.494 16.906, 500.747 19.966, 502.567 20.664 C 503.429 20.995, 504.667 20.729, 505.317 20.074 C 506.230 19.153, 506.101 19.033, 504.750 19.548 C 503.736 19.934, 503 19.748, 503 19.107 C 503 18.498, 503.675 18, 504.500 18 C 506.382 18, 506.478 15.397, 504.622 14.685 C 503.864 14.394, 502.739 14.661, 502.122 15.278 M 534 17.441 C 534 19.398, 534.174 21, 534.387 21 C 535.208 21, 535.621 14.884, 534.833 14.397 C 534.375 14.114, 534 15.484, 534 17.441 M 476.885 15.750 C 476.822 16.163, 476.850 17.288, 476.948 18.250 C 477.046 19.212, 476.647 20, 476.063 20 C 475.478 20, 475 19.298, 475 18.441 C 475 17.584, 474.550 17.160, 474 17.500 C 472.014 18.727, 472.988 21, 475.500 21 C 477.611 21, 478 20.533, 478 18 C 478 15.360, 477.194 13.734, 476.885 15.750 M 483.787 18 C 484.029 19.650, 484.350 21, 484.500 21 C 484.650 21, 484.971 19.650, 485.213 18 C 485.485 16.146, 485.213 15, 484.500 15 C 483.787 15, 483.515 16.146, 483.787 18 M 493.798 17.925 C 493.550 19.616, 493.688 21, 494.106 21 C 495.373 21, 496.266 16.866, 495.224 15.824 C 494.591 15.191, 494.091 15.927, 493.798 17.925 M 503 16 C 503 16.550, 503.477 17, 504.059 17 C 504.641 17, 504.840 16.550, 504.500 16 C 504.160 15.450, 503.684 15, 503.441 15 C 503.198 15, 503 15.450, 503 16 M 523.787 18 C 524.029 19.650, 524.401 21, 524.613 21 C 524.826 21, 525 19.650, 525 18 C 525 16.350, 524.628 15, 524.173 15 C 523.718 15, 523.545 16.350, 523.787 18 M 530.885 15.750 C 530.822 16.163, 530.850 17.288, 530.948 18.250 C 531.046 19.212, 530.647 20, 530.063 20 C 529.478 20, 529 19.298, 529 18.441 C 529 17.584, 528.550 17.160, 528 17.500 C 526.014 18.727, 526.988 21, 529.500 21 C 531.611 21, 532 20.533, 532 18 C 532 15.360, 531.194 13.734, 530.885 15.750 M 402.202 50.250 L 402.500 56.500 422.750 56.771 L 443 57.041 443 50.521 L 443 44 422.452 44 L 401.905 44 402.202 50.250 M 453.794 47.250 C 453.563 47.938, 453.686 49.850, 454.068 51.500 C 454.706 54.253, 454.773 54.150, 454.882 50.250 C 455 46.011, 454.590 44.881, 453.794 47.250 M 486.272 50 C 486.272 52.475, 486.467 53.487, 486.706 52.250 C 486.944 51.013, 486.944 48.987, 486.706 47.750 C 486.467 46.513, 486.272 47.525, 486.272 50 M 490.500 47 C 490.160 47.550, 490.359 48, 490.941 48 C 491.523 48, 492 47.550, 492 47 C 492 46.450, 491.802 46, 491.559 46 C 491.316 46, 490.840 46.450, 490.500 47 M 555.794 47.250 C 555.563 47.938, 555.686 49.850, 556.068 51.500 C 556.706 54.253, 556.773 54.150, 556.882 50.250 C 557 46.011, 556.590 44.881, 555.794 47.250 M 588.272 50 C 588.272 52.475, 588.467 53.487, 588.706 52.250 C 588.944 51.013, 588.944 48.987, 588.706 47.750 C 588.467 46.513, 588.272 47.525, 588.272 50 M 576 49.500 C 576 50.325, 576.436 51, 576.969 51 C 577.501 51, 577.678 50.325, 577.362 49.500 C 577.045 48.675, 576.609 48, 576.393 48 C 576.177 48, 576 48.675, 576 49.500 M 450 50.941 C 450 52.009, 450.385 53.120, 450.856 53.411 C 451.326 53.702, 451.499 52.828, 451.239 51.470 C 450.675 48.519, 450 48.231, 450 50.941 M 552.079 50.583 C 552.127 51.748, 552.364 51.985, 552.683 51.188 C 552.972 50.466, 552.936 49.603, 552.604 49.271 C 552.272 48.939, 552.036 49.529, 552.079 50.583 M 477.079 52.583 C 477.127 53.748, 477.364 53.985, 477.683 53.188 C 477.972 52.466, 477.936 51.603, 477.604 51.271 C 477.272 50.939, 477.036 51.529, 477.079 52.583 M 559.079 52.583 C 559.127 53.748, 559.364 53.985, 559.683 53.188 C 559.972 52.466, 559.936 51.603, 559.604 51.271 C 559.272 50.939, 559.036 51.529, 559.079 52.583 M 569.079 52.583 C 569.127 53.748, 569.364 53.985, 569.683 53.188 C 569.972 52.466, 569.936 51.603, 569.604 51.271 C 569.272 50.939, 569.036 51.529, 569.079 52.583 M 579.079 52.583 C 579.127 53.748, 579.364 53.985, 579.683 53.188 C 579.972 52.466, 579.936 51.603, 579.604 51.271 C 579.272 50.939, 579.036 51.529, 579.079 52.583 M 499.737 77.750 C 499.528 78.162, 499.673 79.850, 500.060 81.500 C 500.752 84.450, 500.765 84.437, 500.882 80.750 C 500.994 77.189, 500.577 76.096, 499.737 77.750 M 498.366 150.765 C 497.742 151.169, 497.067 152.369, 496.865 153.430 C 496.615 154.752, 482.215 164.072, 451.184 182.997 C 413.507 205.976, 405.376 210.562, 402.946 210.205 C 400.823 209.894, 399.840 210.254, 399.352 211.524 C 398.430 213.929, 400.315 216.517, 402.916 216.417 C 405.469 216.318, 484.462 290.319, 484.562 292.902 C 484.596 293.781, 484.926 295.175, 485.296 296 C 485.687 296.872, 478.685 316.941, 468.568 343.947 C 454.649 381.101, 450.750 390.548, 449.084 391.165 C 446.344 392.178, 446.241 396.624, 448.937 397.480 C 450.003 397.818, 451.710 397.574, 452.730 396.936 C 455.570 395.163, 554.766 415.303, 557.220 418.151 C 559.422 420.707, 563.390 420.270, 563.796 417.427 C 564.204 414.576, 689.107 338.500, 693.380 338.500 C 695.087 338.500, 696.717 337.759, 697.380 336.683 C 698.306 335.181, 698.035 334.487, 695.818 332.683 C 691.923 329.514, 636.688 189.812, 637.575 185.376 C 638.387 181.317, 635.960 179.148, 632.611 180.940 C 630.609 182.012, 621.873 180.318, 568.895 168.585 C 535.128 161.106, 506.488 154.757, 505.250 154.475 C 504.012 154.193, 503 153.344, 503 152.588 C 503 151.832, 502.288 150.941, 501.418 150.607 C 499.518 149.878, 499.755 149.865, 498.366 150.765 M 335.269 154.693 C 336.242 154.947, 337.592 154.930, 338.269 154.656 C 338.946 154.382, 338.150 154.175, 336.500 154.195 C 334.850 154.215, 334.296 154.439, 335.269 154.693 M 660.541 154.933 C 660.144 155.576, 660.532 155.733, 661.549 155.343 C 662.476 154.987, 663.630 155.321, 664.177 156.104 C 664.989 157.266, 665.084 157.248, 664.743 156 C 664.250 154.190, 661.441 153.477, 660.541 154.933 M 660.442 160.094 C 660.134 160.592, 661.034 161, 662.441 161 C 665.505 161, 665.753 160.430, 663.001 159.711 C 661.902 159.423, 660.750 159.596, 660.442 160.094 M 295.507 339.989 C 295.144 340.576, 295.593 340.710, 296.612 340.319 C 297.868 339.836, 298.109 340.015, 297.510 340.985 C 296.961 341.872, 297.077 342.070, 297.862 341.585 C 298.506 341.187, 298.774 340.443, 298.457 339.931 C 297.706 338.715, 296.277 338.743, 295.507 339.989 M 700.540 339.936 C 700.139 340.584, 700.547 340.727, 701.622 340.315 C 702.944 339.808, 703.197 340.044, 702.705 341.326 C 702.352 342.247, 702.532 343, 703.105 343 C 704.486 343, 703.824 339.774, 702.342 339.280 C 701.705 339.068, 700.894 339.363, 700.540 339.936 M 295.733 345.124 C 296.412 345.808, 297.219 346.115, 297.526 345.807 C 297.834 345.499, 297.279 344.940, 296.293 344.564 C 294.868 344.022, 294.753 344.136, 295.733 345.124 M 406 479.500 C 406 480.325, 406.642 481, 407.427 481 C 408.211 481, 409.059 481.788, 409.311 482.750 C 409.739 484.390, 409.775 484.388, 409.884 482.719 C 409.948 481.739, 409.245 480.648, 408.323 480.294 C 406.823 479.718, 406.849 479.571, 408.573 478.895 C 410.338 478.204, 410.311 478.135, 408.250 478.070 C 406.885 478.028, 406 478.590, 406 479.500 M 592.752 480.158 C 593.228 481.978, 592.978 482.228, 591.158 481.752 C 589.971 481.441, 589 481.543, 589 481.977 C 589 482.411, 590.125 482.982, 591.500 483.245 C 593.696 483.664, 594 483.374, 594 480.861 C 594 479.288, 593.592 478, 593.094 478 C 592.595 478, 592.441 478.971, 592.752 480.158" stroke="none" fill="black" fill-rule="evenodd"/>
	<path fill-opacity="0.631" d="M 403 50.500 L 403 57 423 57 L 443 57 443 50.500 L 443 44 423 44 L 403 44 403 50.500 M 497.667 151.667 C 497.300 152.033, 496.988 153.046, 496.974 153.917 C 496.935 156.306, 407.304 210.561, 403.834 210.297 C 402.367 210.185, 400.672 210.691, 400.066 211.420 C 398.419 213.406, 399.883 216, 402.652 216 C 404.487 216, 414.952 225.306, 444.930 253.596 C 479.628 286.340, 484.842 291.641, 485.335 294.674 C 486.138 299.628, 453.103 388.561, 449.430 391.333 C 446.502 393.543, 446.322 395.567, 448.931 396.963 C 450.352 397.724, 451.223 397.634, 452.232 396.625 C 454.271 394.587, 555.822 415.212, 557.872 418.080 C 559.825 420.813, 562.671 420.487, 563.696 417.413 C 564.381 415.357, 577.383 407.004, 627.029 376.723 C 672.430 349.032, 690.416 338.563, 692.852 338.408 C 694.696 338.291, 696.668 337.732, 697.235 337.165 C 698.615 335.785, 697.420 332.923, 695.223 332.348 C 693.928 332.009, 685.798 312.528, 664.767 259.367 C 639.989 196.733, 636.243 186.577, 637.289 184.863 C 639.064 181.954, 636.004 179.795, 632.163 181.245 C 628.225 182.731, 505.206 155.664, 503.128 152.855 C 501.763 151.009, 498.938 150.395, 497.667 151.667" stroke="none" fill="black" fill-rule="evenodd"/>
</svg>